<?xml version="1.0" encoding="UTF-8"?> <svg xmlns="http://www.w3.org/2000/svg" width="280" height="281" viewBox="0 0 280 281"><g fill="none" fill-rule="evenodd"><path d="M41.089 41.59c53.973-53.974 141.147-54.514 195.784-1.62l1.646 1.62-18.189 18.188c-44.473-44.474-116.58-44.474-161.053 0-44.473 44.473-44.473 116.579 0 161.052 44.474 44.474 116.58 44.474 161.054 0 18.407-18.407 29.621-42.013 32.571-67.116l.062-.549h-113.16v-25.722h139.604v12.861c0 36.775-14.36 72.186-40.889 98.714-54.519 54.52-142.912 54.52-197.43 0-54.519-54.518-54.519-142.91 0-197.429z" fill="#1A1A1A" fill-rule="nonzero"></path><path d="M103.326 140.304c0-20.146 16.332-36.478 36.478-36.478s36.477 16.332 36.477 36.478c0 20.147-16.33 36.478-36.477 36.478-20.146 0-36.478-16.331-36.478-36.478" fill="#FFF"></path><path d="M139.804 90.965c-27.249 0-49.339 22.09-49.339 49.34 0 27.248 22.09 49.338 49.339 49.338 27.25 0 49.339-22.09 49.339-49.339 0-27.25-22.09-49.34-49.34-49.34zm0 25.722c13.043 0 23.616 10.574 23.616 23.617 0 13.044-10.573 23.617-23.616 23.617s-23.617-10.574-23.617-23.617c0-13.043 10.574-23.617 23.617-23.617z" fill="#1A1A1A" fill-rule="nonzero"></path><path d="M204.75 53.223c0-16.045 13.006-29.05 29.05-29.05 16.043 0 29.05 13.005 29.05 29.05 0 16.044-13.007 29.05-29.05 29.05-16.044 0-29.05-13.006-29.05-29.05" fill="#FFF"></path><path d="M233.75 11.361c-23.12 0-41.862 18.742-41.862 41.862s18.743 41.86 41.862 41.86c23.119 0 41.86-18.74 41.86-41.86s-18.74-41.862-41.86-41.862zm0 25.723c8.913 0 16.138 7.225 16.138 16.139 0 8.913-7.225 16.138-16.138 16.138-8.914 0-16.14-7.225-16.14-16.138 0-8.914 7.226-16.14 16.14-16.14z" fill="#00FFA7" fill-rule="nonzero"></path></g></svg> 