<?xml version="1.0" encoding="UTF-8"?> <svg xmlns="http://www.w3.org/2000/svg" xmlns:xlink="http://www.w3.org/1999/xlink" width="294" height="77" viewBox="0 0 294 77"><defs><path id="6khljsmj9a" d="M0 76.208h293.255V0H0z"></path></defs><g fill="none" fill-rule="evenodd"><path d="M64.872 65.224a2.867 2.867 0 0 0-1.606-.46c-.59 0-1.136.137-1.64.411-.505.275-.968.69-1.39 1.244v-4.564h-1.038v11.192h1.039v-2.962c0-1.069.05-1.8.149-2.197a2.924 2.924 0 0 1 .984-1.544 2.563 2.563 0 0 1 1.688-.624c.549 0 .993.135 1.332.406.338.27.572.671.701 1.205.074.313.111.933.111 1.864v3.852h1.04V68.89c0-1.103-.112-1.913-.335-2.43a2.737 2.737 0 0 0-1.035-1.236" fill="#CCC"></path><mask id="catt6xuqeb" fill="#fff"><use xlink:href="#6khljsmj9a"></use></mask><path fill="#CCC" mask="url(#catt6xuqeb)" d="M68.008 73.047h1.039v-8.075h-1.039zM68.524 61.646a.815.815 0 0 0-.598.253.829.829 0 0 0-.252.608.82.82 0 0 0 .252.602.814.814 0 0 0 .598.252c.236 0 .439-.085.606-.252a.824.824 0 0 0 .251-.602.832.832 0 0 0-.251-.608.825.825 0 0 0-.606-.253M77.044 71.206c-.581.573-1.349.86-2.304.86-.945 0-1.715-.288-2.308-.868-.594-.579-.89-1.31-.89-2.196 0-.584.143-1.127.43-1.63a3.108 3.108 0 0 1 1.187-1.18 3.285 3.285 0 0 1 1.64-.426c.564 0 1.091.138 1.581.415.49.278.868.655 1.135 1.132.267.478.401 1.02.401 1.63 0 .934-.29 1.69-.872 2.263zm.82-4.832c-.485-.574-.99-.986-1.512-1.236a3.865 3.865 0 0 0-1.69-.374c-.727 0-1.42.188-2.076.564a4.106 4.106 0 0 0-1.542 1.531 4.129 4.129 0 0 0-.557 2.09c0 .748.178 1.433.535 2.056.356.624.862 1.12 1.516 1.488.653.368 1.351.553 2.095.553a4.18 4.18 0 0 0 1.797-.397 3.932 3.932 0 0 0 1.434-1.14v.417c0 .89-.104 1.535-.312 1.934-.208.4-.556.73-1.043.995-.489.263-1.087.395-1.795.395-.718 0-1.32-.129-1.806-.385-.485-.258-.882-.654-1.188-1.188H70.59c.292.635.611 1.118.958 1.448.345.33.794.594 1.346.788.552.196 1.174.295 1.867.295.946 0 1.753-.201 2.427-.6a3.231 3.231 0 0 0 1.418-1.716c.197-.524.297-1.353.297-2.486v-6.434h-1.04v1.402zM86.5 65.224a2.867 2.867 0 0 0-1.607-.46 3.38 3.38 0 0 0-1.64.411c-.505.275-.968.69-1.388 1.244v-4.564h-1.039v11.192h1.039v-2.962c0-1.069.049-1.8.148-2.197a2.93 2.93 0 0 1 .984-1.544 2.564 2.564 0 0 1 1.688-.624c.55 0 .994.135 1.332.406.34.27.573.671.702 1.205.074.313.11.933.11 1.864v3.852h1.04V68.89c0-1.103-.111-1.913-.334-2.43a2.744 2.744 0 0 0-1.036-1.236M97.603 70.835l-2.595-5.863h-.187l-2.577 5.863-2.475-5.863H88.7l3.45 8.074h.193l2.58-5.78 2.582 5.78h.193l3.507-8.074h-1.08zM108.795 70.703c-.275.49-.666.876-1.175 1.164-.51.286-1.047.43-1.616.43a3.061 3.061 0 0 1-1.583-.434 3.188 3.188 0 0 1-1.174-1.212 3.276 3.276 0 0 1-.438-1.63c0-.574.145-1.118.434-1.632a3.131 3.131 0 0 1 2.768-1.623c.9 0 1.658.313 2.272.942.615.627.923 1.408.923 2.342 0 .612-.138 1.164-.411 1.653zm.345-4.248c-.407-.563-.878-.987-1.415-1.268a3.8 3.8 0 0 0-1.799-.423c-1.148 0-2.13.413-2.946 1.24-.817.825-1.225 1.82-1.225 2.983 0 1.186.405 2.196 1.213 3.025.81.828 1.785 1.241 2.928 1.241.643 0 1.236-.133 1.777-.4.543-.267 1.03-.666 1.467-1.194v1.387h1.024v-8.074h-1.024v1.483zM115.202 71.19l-2.775-6.218h-1.098l3.314 7.463L113.089 76h1.098l4.816-11.028h-1.106zM125.891 61.974h-1.04v2.998h-1.417v.897h1.417v7.178h1.04v-7.178h1.647v-.897h-1.647zM135.344 70.686a3.011 3.011 0 0 1-1.146 1.17 3.15 3.15 0 0 1-1.587.412 3.145 3.145 0 0 1-1.586-.412 3.006 3.006 0 0 1-1.147-1.17 3.27 3.27 0 0 1-.425-1.633c0-.905.31-1.677.931-2.315.62-.639 1.363-.957 2.227-.957.858 0 1.6.318 2.223.957.623.638.935 1.41.935 2.315 0 .584-.142 1.128-.425 1.633m-2.729-5.922c-1.25 0-2.283.452-3.1 1.358-.744.821-1.116 1.791-1.116 2.908 0 1.13.393 2.115 1.179 2.96.785.842 1.798 1.264 3.037 1.264 1.234 0 2.244-.422 3.03-1.265.785-.844 1.178-1.83 1.178-2.959 0-1.122-.372-2.094-1.116-2.916-.817-.9-1.849-1.35-3.092-1.35M146.445 65.744c1.23 0 2.202.472 2.913 1.417l.824-.512a3.472 3.472 0 0 0-.883-1.002 4.302 4.302 0 0 0-1.265-.638 4.913 4.913 0 0 0-1.548-.245c-.85 0-1.62.188-2.308.564a4.17 4.17 0 0 0-1.621 1.57 4.225 4.225 0 0 0-.59 2.177c0 1.163.42 2.15 1.261 2.962.842.812 1.9 1.217 3.176 1.217.832 0 1.572-.16 2.223-.48a3.893 3.893 0 0 0 1.555-1.353l-.824-.541c-.751.944-1.72 1.417-2.905 1.417a3.583 3.583 0 0 1-1.753-.43 3.15 3.15 0 0 1-1.232-1.208 3.275 3.275 0 0 1-.448-1.66c0-.906.326-1.673.975-2.307.65-.632 1.466-.948 2.45-.948M151.719 73.047h1.04V61.855h-1.04zM154.458 73.047h1.039v-8.075h-1.04zM154.973 61.646a.818.818 0 0 0-.599.253.831.831 0 0 0-.25.608c0 .233.083.434.25.602a.817.817 0 0 0 .6.252.826.826 0 0 0 .605-.252.823.823 0 0 0 .251-.602.831.831 0 0 0-.25-.608.827.827 0 0 0-.607-.253M163.026 65.224a2.867 2.867 0 0 0-1.606-.46c-.595 0-1.144.137-1.649.411-.504.275-.965.69-1.38 1.244V64.97h-1.04v8.076h1.04v-2.962c0-1.064.05-1.796.148-2.197a2.93 2.93 0 0 1 .984-1.544 2.565 2.565 0 0 1 1.69-.624c.548 0 .994.135 1.335.406.341.27.572.671.692 1.205.077.313.116.933.116 1.864v3.852h1.039V68.89c0-1.098-.11-1.908-.334-2.426a2.742 2.742 0 0 0-1.035-1.24M166.678 61.646a.818.818 0 0 0-.6.253.831.831 0 0 0-.25.608c0 .233.084.434.25.602a.817.817 0 0 0 .6.252.826.826 0 0 0 .606-.252.823.823 0 0 0 .25-.602.831.831 0 0 0-.25-.608.827.827 0 0 0-.606-.253M166.162 73.047h1.04v-8.075h-1.04zM173.157 65.744c1.23 0 2.202.472 2.913 1.417l.824-.512a3.472 3.472 0 0 0-.883-1.002 4.302 4.302 0 0 0-1.266-.638 4.913 4.913 0 0 0-1.547-.245c-.851 0-1.62.188-2.309.564a4.17 4.17 0 0 0-1.62 1.57 4.225 4.225 0 0 0-.591 2.177c0 1.163.42 2.15 1.262 2.962.841.812 1.9 1.217 3.176 1.217.831 0 1.572-.16 2.223-.48a3.893 3.893 0 0 0 1.555-1.353l-.824-.541c-.751.944-1.72 1.417-2.906 1.417a3.583 3.583 0 0 1-1.753-.43 3.15 3.15 0 0 1-1.231-1.208 3.275 3.275 0 0 1-.448-1.66c0-.906.325-1.673.975-2.307.65-.632 1.466-.948 2.45-.948M185.262 70.703c-.274.49-.665.876-1.174 1.164-.51.286-1.048.43-1.616.43a3.061 3.061 0 0 1-1.583-.434 3.188 3.188 0 0 1-1.175-1.212 3.275 3.275 0 0 1-.004-3.262 3.131 3.131 0 0 1 2.769-1.623c.9 0 1.657.313 2.272.942.615.627.923 1.408.923 2.342 0 .612-.138 1.164-.412 1.653zm.345-4.248c-.406-.563-.877-.987-1.413-1.268a3.805 3.805 0 0 0-1.8-.423c-1.149 0-2.13.413-2.947 1.24-.816.825-1.224 1.82-1.224 2.983 0 1.186.404 2.196 1.213 3.025.81.828 1.785 1.241 2.928 1.241.643 0 1.236-.133 1.777-.4.542-.267 1.03-.666 1.466-1.194v1.387h1.024v-8.074h-1.024v1.483zM188.51 73.047h1.039V61.855h-1.04zM190.728 69.395h4.082v-.905h-4.082zM202.288 71.206c-.581.573-1.35.86-2.305.86-.945 0-1.714-.288-2.308-.868-.593-.579-.89-1.31-.89-2.196 0-.584.143-1.127.43-1.63a3.106 3.106 0 0 1 1.188-1.18 3.287 3.287 0 0 1 1.64-.426 3.16 3.16 0 0 1 1.58.415c.49.278.869.655 1.136 1.132.267.478.4 1.02.4 1.63 0 .934-.29 1.69-.871 2.263zm.82-4.832c-.485-.574-.99-.986-1.512-1.236a3.869 3.869 0 0 0-1.69-.374c-.728 0-1.42.188-2.077.564a4.106 4.106 0 0 0-1.542 1.531 4.129 4.129 0 0 0-.557 2.09c0 .748.18 1.433.535 2.056.357.624.863 1.12 1.517 1.488a4.197 4.197 0 0 0 2.094.553 4.18 4.18 0 0 0 1.797-.397 3.928 3.928 0 0 0 1.435-1.14v.417c0 .89-.103 1.535-.312 1.934-.208.4-.557.73-1.044.995-.488.263-1.086.395-1.795.395-.718 0-1.32-.129-1.805-.385-.486-.258-.882-.654-1.189-1.188h-1.128c.292.635.61 1.118.957 1.448.347.33.795.594 1.348.788.55.196 1.173.295 1.866.295.945 0 1.753-.201 2.427-.6a3.234 3.234 0 0 0 1.417-1.716c.197-.524.297-1.353.297-2.486v-6.434h-1.04v1.402zM207.739 65.109c-.351.23-.685.577-1.002 1.042v-1.18h-1.061v8.075h1.061v-2.73c0-1.402.064-2.33.194-2.792.167-.598.412-1.04.734-1.324.321-.285.656-.426 1.002-.426.148 0 .331.046.549.14l.542-.876c-.327-.183-.634-.274-.92-.274-.381 0-.748.115-1.099.345M217.013 70.703c-.275.49-.666.876-1.175 1.164-.51.286-1.047.43-1.616.43a3.061 3.061 0 0 1-1.583-.434 3.188 3.188 0 0 1-1.174-1.212 3.275 3.275 0 0 1-.004-3.262 3.131 3.131 0 0 1 2.768-1.623c.9 0 1.658.313 2.272.942.616.627.923 1.408.923 2.342 0 .612-.138 1.164-.411 1.653zm.345-4.248c-.407-.563-.878-.987-1.414-1.268a3.805 3.805 0 0 0-1.8-.423c-1.147 0-2.13.413-2.946 1.24-.817.825-1.225 1.82-1.225 2.983 0 1.186.405 2.196 1.213 3.025.81.828 1.785 1.241 2.929 1.241.643 0 1.235-.133 1.777-.4.542-.267 1.03-.666 1.466-1.194v1.387h1.024v-8.074h-1.024v1.483zM227.106 70.703a3 3 0 0 1-1.174 1.164c-.51.286-1.048.43-1.617.43a3.061 3.061 0 0 1-1.582-.434 3.188 3.188 0 0 1-1.175-1.212 3.275 3.275 0 0 1-.004-3.262 3.131 3.131 0 0 1 2.769-1.623c.9 0 1.657.313 2.272.942.615.627.922 1.408.922 2.342a3.32 3.32 0 0 1-.41 1.653zm.345-4.248c-.405-.563-.876-.987-1.414-1.268a3.803 3.803 0 0 0-1.8-.423c-1.147 0-2.13.413-2.946 1.24-.816.825-1.224 1.82-1.224 2.983 0 1.186.404 2.196 1.213 3.025.809.828 1.785 1.241 2.927 1.241.644 0 1.236-.133 1.778-.4s1.031-.666 1.466-1.194v1.387h1.024V61.854h-1.024v4.601zM231.304 68.192c.213-.742.527-1.299.943-1.67.57-.509 1.251-.764 2.044-.764.48 0 .938.101 1.375.304.435.203.786.47 1.05.802.266.331.467.774.606 1.328h-6.018zm6.27-1.862c-.822-1.044-1.922-1.567-3.299-1.567-1.336 0-2.404.51-3.2 1.53a4.313 4.313 0 0 0-.944 2.737c0 1.09.371 2.065 1.114 2.93.743.861 1.773 1.294 3.09 1.294.595 0 1.127-.091 1.598-.27.47-.181.893-.445 1.27-.79.376-.347.708-.804.995-1.366l-.876-.462c-.317.528-.611.91-.884 1.147a3.162 3.162 0 0 1-.992.57 3.46 3.46 0 0 1-1.2.214c-.852 0-1.568-.3-2.147-.9-.58-.6-.88-1.369-.9-2.306h7.266c-.01-1.103-.307-2.024-.892-2.76zM246.625 68.4l1.87-3.951 1.862 3.951h-3.732zm1.741-6.271-5.158 10.918h1.217l1.7-3.593h4.703l1.718 3.593h1.178l-5.09-10.918h-.268zM254.957 73.047h1.09V62.129h-1.09z"></path><path d="M27.852 35.086a5.54 5.54 0 0 1-5.534-5.535 5.541 5.541 0 0 1 5.534-5.535 5.54 5.54 0 0 1 5.534 5.535 5.54 5.54 0 0 1-5.534 5.535zm9.194-7.464c-.893-4.258-4.675-7.465-9.194-7.465-5.18 0-9.394 4.214-9.394 9.394s4.214 9.394 9.394 9.394c4.519 0 8.3-3.207 9.194-7.464H51.78c-.449 5.684-2.878 10.968-6.954 15.045-9.36 9.36-24.59 9.359-33.95 0-9.359-9.36-9.359-24.59 0-33.95 8.312-8.31 21.248-9.235 30.596-2.786a5.95 5.95 0 0 1 2.383-3.044C32.99-.886 17.853.143 8.148 9.846c-10.864 10.866-10.864 28.544 0 39.41 5.433 5.432 12.569 8.147 19.704 8.147 7.136 0 14.272-2.715 19.704-8.148 5.263-5.263 8.162-12.26 8.162-19.704v-1.93H37.046z" fill="#FFF" mask="url(#catt6xuqeb)"></path><path d="M47.087 7.718a4.019 4.019 0 0 0-4.015 4.014 4.02 4.02 0 0 0 4.015 4.014c2.213 0 4.013-1.8 4.013-4.014 0-2.214-1.8-4.014-4.013-4.014m0 11.889c-4.343 0-7.875-3.533-7.875-7.875 0-4.342 3.532-7.875 7.875-7.875 4.341 0 7.874 3.533 7.874 7.875 0 4.342-3.533 7.875-7.874 7.875M273.725 38.285c-1.16 2.068-2.815 3.708-4.967 4.92-2.152 1.212-4.43 1.818-6.832 1.818-2.382 0-4.613-.612-6.692-1.834-2.078-1.222-3.733-2.93-4.967-5.124-1.232-2.193-1.848-4.491-1.848-6.895 0-2.423.611-4.72 1.833-6.894 1.222-2.172 2.867-3.86 4.936-5.061s4.325-1.801 6.769-1.801c3.803 0 7.005 1.327 9.605 3.979 2.602 2.654 3.902 5.954 3.902 9.903 0 2.591-.58 4.921-1.74 6.989zm1.457-17.954c-1.715-2.385-3.708-4.173-5.977-5.365-2.27-1.193-4.806-1.788-7.608-1.788-4.853 0-9.005 1.746-12.456 5.239-3.452 3.494-5.177 7.698-5.177 12.613 0 5.02 1.71 9.282 5.13 12.785s7.545 5.255 12.377 5.255c2.718 0 5.224-.564 7.514-1.694s4.356-2.813 6.197-5.051v5.866h4.33V14.056h-4.33v6.275zM287.452 48.191h4.392V14.056h-4.392zM292.193 1.067C291.485.356 290.631 0 289.632 0c-.979 0-1.823.356-2.531 1.067a3.514 3.514 0 0 0-1.062 2.573c0 .983.354 1.83 1.062 2.54.708.712 1.552 1.067 2.53 1.067 1 0 1.854-.355 2.562-1.066.708-.711 1.062-1.558 1.062-2.541a3.514 3.514 0 0 0-1.062-2.573" fill="#00FFA7" mask="url(#catt6xuqeb)"></path><path d="M66.906 27.672c.9-3.137 2.23-5.49 3.989-7.059 2.408-2.153 5.288-3.231 8.64-3.231 2.03 0 3.967.429 5.81 1.286 1.843.858 3.325 1.988 4.445 3.39 1.121 1.4 1.975 3.273 2.561 5.614H66.906zm26.508-7.874c-3.475-4.414-8.122-6.62-13.943-6.62-5.652 0-10.164 2.154-13.535 6.462-2.659 3.389-3.988 7.248-3.988 11.578 0 4.6 1.57 8.727 4.711 12.377 3.14 3.651 7.495 5.475 13.064 5.475 2.512 0 4.763-.382 6.752-1.145a16.707 16.707 0 0 0 5.37-3.341c1.591-1.465 2.994-3.389 4.209-5.774l-3.703-1.944c-1.34 2.229-2.586 3.843-3.739 4.843-1.151 1-2.55 1.803-4.194 2.407a14.586 14.586 0 0 1-5.072.907c-3.602 0-6.628-1.268-9.078-3.803-2.451-2.537-3.719-5.786-3.801-9.75h30.715c-.041-4.666-1.297-8.556-3.768-11.672zM112.885 28.77c-2.682-1.38-4.444-2.582-5.282-3.608-.838-1.004-1.258-2.06-1.258-3.168 0-1.256.509-2.353 1.526-3.295 1.017-.94 2.238-1.412 3.665-1.412 2.243 0 4.54 1.14 6.89 3.42l2.823-2.918c-3.185-3.074-6.349-4.612-9.49-4.612-2.705 0-4.941.858-6.711 2.573-1.77 1.715-2.656 3.87-2.656 6.463 0 1.988.555 3.755 1.666 5.303 1.112 1.547 3.208 3.116 6.289 4.706 2.872 1.465 4.716 2.677 5.534 3.64.817.982 1.226 2.101 1.226 3.356 0 1.527-.619 2.855-1.855 3.985-1.238 1.13-2.736 1.694-4.497 1.694-2.516 0-4.896-1.264-7.14-3.796l-2.76 3.137c1.173 1.506 2.655 2.688 4.447 3.546 1.79.857 3.67 1.286 5.64 1.286 2.953 0 5.415-.972 7.384-2.918 1.969-1.945 2.954-4.319 2.954-7.122 0-1.987-.577-3.775-1.728-5.365-1.175-1.568-3.397-3.2-6.667-4.894M152.562 29.994c0 4.267-.22 7.06-.66 8.377-.649 1.925-1.828 3.478-3.535 4.66-1.707 1.18-3.786 1.772-6.237 1.772-2.452 0-4.562-.607-6.331-1.82-1.77-1.212-2.97-2.865-3.599-4.956-.418-1.464-.628-4.142-.628-8.033V14.056h-4.392v16.44c0 4.853.549 8.487 1.647 10.903 1.098 2.416 2.762 4.298 4.989 5.647 2.227 1.35 5.004 2.024 8.33 2.024 3.326 0 6.092-.675 8.299-2.024 2.206-1.349 3.859-3.215 4.957-5.6 1.099-2.385 1.647-5.93 1.647-10.636V14.056h-4.487v15.938zM189.508 15.123c-1.976-1.297-4.24-1.946-6.792-1.946-2.51 0-4.832.58-6.965 1.742-2.134 1.16-4.079 2.913-5.836 5.255v-6.118h-4.393V48.19h4.393V35.673c0-4.496.208-7.593.627-9.287.67-2.593 2.055-4.768 4.158-6.526 2.102-1.756 4.482-2.636 7.14-2.636 2.32 0 4.204.57 5.647 1.71 1.443 1.141 2.42 2.84 2.929 5.099.325 1.318.489 3.942.489 7.875v16.283h4.392V30.622c0-4.644-.47-8.064-1.412-10.26-.941-2.196-2.4-3.942-4.377-5.24M231.711 38.285c-1.16 2.068-2.815 3.708-4.966 4.92-2.153 1.212-4.43 1.818-6.833 1.818-2.382 0-4.612-.612-6.691-1.834-2.079-1.222-3.735-2.93-4.967-5.124-1.233-2.193-1.849-4.491-1.849-6.895 0-2.423.611-4.72 1.833-6.894 1.222-2.172 2.867-3.86 4.937-5.061 2.068-1.201 4.324-1.801 6.768-1.801 3.803 0 7.005 1.327 9.606 3.979 2.601 2.654 3.902 5.954 3.902 9.903 0 2.591-.58 4.921-1.74 6.989zM233.168.878v19.453c-1.715-2.385-3.708-4.173-5.977-5.365-2.27-1.193-4.806-1.788-7.608-1.788-4.853 0-9.005 1.746-12.456 5.239-3.451 3.494-5.177 7.698-5.177 12.613 0 5.02 1.71 9.282 5.13 12.785s7.546 5.255 12.378 5.255c2.718 0 5.223-.564 7.514-1.694 2.29-1.13 4.356-2.813 6.196-5.051v5.866h4.33V.878h-4.33z" fill="#FFF" mask="url(#catt6xuqeb)"></path></g></svg> 