<?xml version="1.0" encoding="UTF-8"?> <svg xmlns="http://www.w3.org/2000/svg" xmlns:xlink="http://www.w3.org/1999/xlink" width="1146" height="1010" viewBox="0 0 1146 1010"><defs><path id="rsdxpq7lya" d="M0 1009.858h1144.262V0H0z"></path></defs><g transform="translate(.53)" fill="none" fill-rule="evenodd"><path d="M585.04 123.556c-.015-1.152.921-2.088 2.073-2.103 1.152 0 2.088.936 2.103 2.089a2.1 2.1 0 0 1-2.074 2.102 2.083 2.083 0 0 1-2.103-2.088zm16.086 2.261h-.014a2.082 2.082 0 0 1-2.016-2.16 2.071 2.071 0 0 1 2.146-2.016 2.09 2.09 0 0 1 2.03 2.145 2.097 2.097 0 0 1-2.088 2.031h-.058zm-30.143-1.843a2.093 2.093 0 0 1 2.002-2.175 2.073 2.073 0 0 1 2.174 2.002c.058 1.153-.85 2.118-2.001 2.176h-.087a2.093 2.093 0 0 1-2.088-2.003zm44.099 2.52a2.074 2.074 0 0 1-1.944-2.218 2.073 2.073 0 0 1 2.218-1.944 2.073 2.073 0 0 1 1.944 2.218 2.094 2.094 0 0 1-2.088 1.958c-.044 0-.087 0-.13-.014zm-58.127-1.597a2.097 2.097 0 0 1 1.93-2.248v-.015a2.104 2.104 0 0 1 2.247 1.93 2.096 2.096 0 0 1-1.93 2.247c-.043.016-.1.016-.158.016a2.101 2.101 0 0 1-2.089-1.93zm72.054 2.792a2.1 2.1 0 0 1-1.873-2.303 2.11 2.11 0 0 1 2.305-1.859 2.096 2.096 0 0 1 1.858 2.29 2.101 2.101 0 0 1-2.074 1.887c-.072 0-.144-.015-.216-.015zm-86.038-1.368a2.105 2.105 0 0 1 1.843-2.317 2.098 2.098 0 0 1 2.32 1.842 2.107 2.107 0 0 1-1.844 2.319c-.072 0-.159.014-.245.014a2.11 2.11 0 0 1-2.074-1.858zm99.907 3.068a2.084 2.084 0 0 1-1.772-2.362 2.082 2.082 0 0 1 2.35-1.786 2.102 2.102 0 0 1 1.784 2.363 2.093 2.093 0 0 1-2.074 1.8c-.086 0-.187 0-.288-.015zm-113.82-1.122a2.084 2.084 0 0 1 1.743-2.378c1.138-.173 2.218.605 2.39 1.743a2.108 2.108 0 0 1-1.756 2.39c-.1.015-.202.03-.317.03a2.1 2.1 0 0 1-2.06-1.785zm127.617 3.34a2.101 2.101 0 0 1-1.685-2.434 2.08 2.08 0 0 1 2.42-1.685 2.09 2.09 0 0 1 1.699 2.42 2.109 2.109 0 0 1-2.434 1.699zm-141.457-.879a2.086 2.086 0 0 1 1.656-2.448 2.096 2.096 0 0 1 2.449 1.658 2.084 2.084 0 0 1-1.656 2.446 1.92 1.92 0 0 1-.404.044c-.98 0-1.858-.69-2.045-1.7zm155.168 3.588v.013c-1.124-.26-1.844-1.368-1.599-2.492a2.083 2.083 0 0 1 2.492-1.597 2.085 2.085 0 0 1 1.598 2.476 2.104 2.104 0 0 1-2.045 1.656c-.144 0-.302-.029-.446-.056zm-168.907-.621a2.093 2.093 0 0 1 1.57-2.506 2.093 2.093 0 0 1 2.505 1.571 2.093 2.093 0 0 1-1.57 2.505 1.79 1.79 0 0 1-.475.057 2.09 2.09 0 0 1-2.03-1.627zm182.502 3.845c-1.109-.272-1.786-1.424-1.497-2.534a2.093 2.093 0 0 1 2.549-1.513 2.097 2.097 0 0 1 1.497 2.55 2.089 2.089 0 0 1-2.029 1.57c-.16 0-.347-.03-.52-.073zm-196.127-.36a2.085 2.085 0 0 1 1.484-2.562 2.095 2.095 0 0 1 2.563 1.468 2.096 2.096 0 0 1-1.483 2.563c-.173.06-.36.072-.533.072a2.092 2.092 0 0 1-2.03-1.54zm209.61 4.09a2.074 2.074 0 0 1-1.414-2.592 2.08 2.08 0 0 1 2.593-1.41c1.109.33 1.742 1.498 1.411 2.591a2.074 2.074 0 0 1-2.59 1.411zm-223.09-.113a2.076 2.076 0 0 1 1.383-2.608 2.095 2.095 0 0 1 2.62 1.368 2.116 2.116 0 0 1-2.001 2.722 2.09 2.09 0 0 1-2.002-1.482zm236.411 4.348a2.087 2.087 0 0 1-1.312-2.65 2.083 2.083 0 0 1 2.65-1.31c1.094.36 1.67 1.555 1.31 2.65a2.101 2.101 0 0 1-1.986 1.412c-.217 0-.447-.03-.662-.102zm-249.776.144a2.105 2.105 0 0 1 1.282-2.665c1.094-.374 2.29.188 2.664 1.282a2.075 2.075 0 0 1-1.282 2.664c-.23.087-.46.117-.691.117-.864 0-1.67-.534-1.973-1.398zm262.924 4.581a2.11 2.11 0 0 1-1.21-2.708 2.106 2.106 0 0 1 2.707-1.21c1.066.402 1.613 1.612 1.21 2.708a2.131 2.131 0 0 1-1.959 1.338c-.244 0-.504-.043-.748-.128zm-276.102.418a2.089 2.089 0 0 1 1.181-2.724 2.1 2.1 0 0 1 2.708 1.181c.417 1.08-.101 2.29-1.181 2.708-.245.1-.504.145-.764.145-.835 0-1.627-.49-1.944-1.31zm289.078 4.78a2.094 2.094 0 0 1-1.11-2.737 2.074 2.074 0 0 1 2.737-1.109 2.073 2.073 0 0 1 1.11 2.737 2.083 2.083 0 0 1-1.93 1.267c-.26 0-.548-.043-.807-.158zm-302.069.678a2.099 2.099 0 0 1 1.08-2.752 2.08 2.08 0 0 1 2.751 1.08 2.082 2.082 0 0 1-1.915 2.925c-.807 0-1.57-.462-1.916-1.253zm314.843 4.996v.015a2.093 2.093 0 0 1-1.008-2.78 2.091 2.091 0 0 1 2.78-1.023v.015a2.079 2.079 0 0 1 1.008 2.765 2.096 2.096 0 0 1-1.901 1.21c-.288 0-.59-.058-.879-.202zm-327.603.95a2.072 2.072 0 0 1 .965-2.779h.015a2.07 2.07 0 0 1 2.78.98 2.073 2.073 0 0 1-.98 2.779h.014a2.11 2.11 0 0 1-.922.217 2.083 2.083 0 0 1-1.872-1.196zm-12.544 6.424a2.093 2.093 0 0 1 .879-2.823c1.008-.546 2.275-.158 2.822.864a2.092 2.092 0 0 1-.878 2.823 1.962 1.962 0 0 1-.965.245 2.102 2.102 0 0 1-1.858-1.11zm-12.285 6.87a2.093 2.093 0 0 1 .763-2.852 2.11 2.11 0 0 1 2.866.763 2.081 2.081 0 0 1-.777 2.852 1.914 1.914 0 0 1-1.037.288c-.72 0-1.426-.373-1.815-1.051zm-12.026 7.316a2.097 2.097 0 0 1 .663-2.88 2.081 2.081 0 0 1 2.88.662 2.09 2.09 0 0 1-.648 2.88 2.114 2.114 0 0 1-1.109.332c-.705 0-1.382-.36-1.786-.994zm-11.737 7.764c-.648-.95-.404-2.262.561-2.896h-.014a2.086 2.086 0 0 1 2.91.547c.647.95.402 2.247-.548 2.896-.36.244-.778.373-1.181.373a2.111 2.111 0 0 1-1.728-.92zm-11.45 8.179a2.096 2.096 0 0 1 .46-2.924 2.088 2.088 0 0 1 2.91.448c.691.935.49 2.246-.446 2.922a2.094 2.094 0 0 1-2.924-.446zm-11.133 8.598a2.088 2.088 0 0 1 .346-2.938 2.088 2.088 0 0 1 2.592 3.27v.014a2.1 2.1 0 0 1-2.938-.346zm-10.801 9.001a2.097 2.097 0 0 1 .23-2.952 2.08 2.08 0 0 1 2.938.23 2.084 2.084 0 0 1-.23 2.953 2.098 2.098 0 0 1-1.354.504c-.59 0-1.181-.26-1.584-.735zm-10.47 9.392c-.778-.851-.735-2.19.115-2.968a2.093 2.093 0 0 1 2.952.13 2.08 2.08 0 0 1-.115 2.953 2.109 2.109 0 0 1-2.952-.115zm-10.125 9.749a2.09 2.09 0 0 1 .014-2.953 2.108 2.108 0 0 1 2.967.015 2.09 2.09 0 0 1-.029 2.952 2.083 2.083 0 0 1-2.952-.014zm-9.75 10.124a2.09 2.09 0 0 1-.087-2.95 2.09 2.09 0 0 1 2.953-.103c.835.792.878 2.117.086 2.952a2.036 2.036 0 0 1-1.527.663 2.103 2.103 0 0 1-1.425-.562zm-9.362 10.47a2.096 2.096 0 0 1-.216-2.952c.764-.863 2.089-.965 2.953-.202.878.764.965 2.09.201 2.953a2.067 2.067 0 0 1-2.938.202zm-8.987 10.802a2.084 2.084 0 0 1-.302-2.938 2.082 2.082 0 0 1 2.938-.302c.893.72 1.023 2.03.302 2.938a2.084 2.084 0 0 1-1.627.763c-.46 0-.922-.143-1.31-.46zm-8.583 11.12a2.092 2.092 0 0 1-.418-2.925 2.11 2.11 0 0 1 2.938-.418 2.107 2.107 0 0 1 .418 2.938 2.093 2.093 0 0 1-1.67.836c-.447 0-.88-.145-1.268-.431zm-8.152 11.434a2.098 2.098 0 0 1-.533-2.908 2.085 2.085 0 0 1 2.91-.52c.95.648 1.195 1.96.533 2.91a2.094 2.094 0 0 1-2.91.518zm-7.734 11.724a2.101 2.101 0 0 1-.633-2.896 2.108 2.108 0 0 1 2.895-.632 2.091 2.091 0 0 1 .619 2.893 2.075 2.075 0 0 1-1.757.965c-.39 0-.778-.115-1.124-.33zM259.64 313a2.091 2.091 0 1 1 2.131-3.6 2.091 2.091 0 0 1 .735 2.866 2.07 2.07 0 0 1-1.8 1.022c-.36 0-.72-.085-1.066-.288zm-6.841 12.257c-1.009-.562-1.397-1.83-.85-2.838h.014a2.09 2.09 0 0 1 2.837-.85 2.102 2.102 0 0 1 .836 2.838 2.07 2.07 0 0 1-1.844 1.096 2.25 2.25 0 0 1-.993-.246zm-6.395 12.488a2.102 2.102 0 0 1-.936-2.809 2.086 2.086 0 0 1 2.794-.952 2.109 2.109 0 0 1 .95 2.81 2.096 2.096 0 0 1-1.872 1.165c-.317 0-.633-.072-.936-.214zm-5.92 12.7a2.093 2.093 0 0 1-1.05-2.764c.475-1.05 1.713-1.526 2.765-1.05a2.093 2.093 0 0 1-.85 4.002 2.08 2.08 0 0 1-.864-.187zm-5.443 12.92a2.096 2.096 0 0 1-1.152-2.723 2.097 2.097 0 0 1 2.722-1.152 2.084 2.084 0 0 1 1.152 2.722 2.08 2.08 0 0 1-1.93 1.31c-.274 0-.533-.057-.792-.158zm-4.983 13.15c-1.08-.405-1.642-1.6-1.239-2.68.39-1.093 1.584-1.64 2.679-1.253 1.08.39 1.642 1.6 1.253 2.68a2.12 2.12 0 0 1-1.973 1.381c-.23 0-.475-.043-.72-.128zm-4.48 13.322a2.114 2.114 0 0 1-1.353-2.636 2.093 2.093 0 0 1 2.636-1.34 2.092 2.092 0 0 1 1.353 2.62 2.091 2.091 0 0 1-2.635 1.356zm-3.989 13.479a2.088 2.088 0 0 1-1.44-2.578 2.08 2.08 0 0 1 2.578-1.455 2.089 2.089 0 0 1 1.44 2.578 2.087 2.087 0 0 1-2.002 1.527c-.187 0-.388-.03-.576-.072zm-3.485 13.61a2.086 2.086 0 0 1-1.54-2.52 2.1 2.1 0 0 1 2.534-1.542 2.109 2.109 0 0 1 1.54 2.52 2.104 2.104 0 0 1-2.534 1.542zm-2.981 13.74a2.088 2.088 0 0 1 .835-4.091 2.098 2.098 0 0 1 1.642 2.463 2.107 2.107 0 0 1-2.045 1.672 2.2 2.2 0 0 1-.432-.045zm-2.463 13.84a2.089 2.089 0 0 1-1.714-2.404 2.087 2.087 0 1 1 4.12.675 2.098 2.098 0 0 1-2.06 1.757c-.115 0-.23-.014-.346-.027zm-1.944 13.912a2.09 2.09 0 1 1 .518-4.148 2.095 2.095 0 0 1 1.815 2.348c-.13 1.05-1.037 1.816-2.074 1.816-.086 0-.173 0-.26-.016zm-1.44 13.986a2.1 2.1 0 0 1-1.901-2.276c.1-1.138 1.123-1.989 2.275-1.888a2.077 2.077 0 0 1 1.887 2.276 2.093 2.093 0 0 1-2.074 1.9c-.072 0-.13 0-.187-.012zm-.937 14.026c-1.152-.058-2.03-1.052-1.973-2.202a2.101 2.101 0 0 1 2.204-1.973c1.152.057 2.03 1.05 1.973 2.202a2.087 2.087 0 0 1-2.088 1.973h-.116zm-.417 14.058a2.102 2.102 0 0 1-2.045-2.133 2.088 2.088 0 0 1 2.117-2.058 2.094 2.094 0 0 1-.029 4.191h-.043zm-2.03 12.01a2.073 2.073 0 0 1 2.044-2.132 2.073 2.073 0 0 1 2.132 2.045 2.09 2.09 0 0 1-2.045 2.132h-.044a2.1 2.1 0 0 1-2.088-2.044zm764.618 4.494a2.093 2.093 0 0 1-2.03-2.147 2.092 2.092 0 0 1 2.145-2.03 2.092 2.092 0 0 1 2.03 2.147 2.087 2.087 0 0 1-2.087 2.03h-.058zm-764.086 9.62a2.085 2.085 0 0 1 1.973-2.204c1.152-.072 2.132.82 2.204 1.973a2.101 2.101 0 0 1-1.973 2.204h-.116a2.087 2.087 0 0 1-2.088-1.973zm763.395 4.422a2.093 2.093 0 0 1-1.958-2.218h.013c.072-1.153 1.052-2.032 2.204-1.945a2.073 2.073 0 0 1 1.959 2.203 2.106 2.106 0 0 1-2.089 1.973c-.043 0-.086-.013-.13-.013zm-762.358 9.677c-.1-1.15.749-2.173 1.887-2.275a2.077 2.077 0 0 1 2.275 1.886c.115 1.154-.734 2.16-1.887 2.276h-.187a2.084 2.084 0 0 1-2.088-1.887zm761.162 4.335a2.11 2.11 0 0 1-1.886-2.29h.014a2.065 2.065 0 0 1 2.276-1.87 2.109 2.109 0 0 1 1.886 2.288v-.013a2.093 2.093 0 0 1-2.088 1.885h-.202zm-759.592 9.707a2.073 2.073 0 0 1 1.8-2.346 2.079 2.079 0 0 1 2.333 1.8 2.074 2.074 0 0 1-1.8 2.346c-.086.015-.173.015-.274.015a2.069 2.069 0 0 1-2.06-1.815zm757.864 4.25a2.094 2.094 0 1 1 2.362-1.8 2.105 2.105 0 0 1-2.074 1.813c-.1 0-.187-.013-.288-.013zm-755.79 9.722v.012c-.188-1.137.576-2.23 1.714-2.418a2.097 2.097 0 0 1 2.405 1.727 2.104 2.104 0 0 1-1.714 2.405c-.115.016-.23.03-.346.03a2.097 2.097 0 0 1-2.06-1.756zm753.558 4.146c-1.138-.186-1.887-1.266-1.7-2.42a2.112 2.112 0 0 1 2.42-1.7 2.092 2.092 0 0 1 1.7 2.42 2.088 2.088 0 0 1-2.06 1.743c-.115 0-.23-.014-.36-.043zm-750.966 9.75a2.085 2.085 0 0 1 1.627-2.463 2.084 2.084 0 0 1 2.463 1.628 2.083 2.083 0 0 1-2.06 2.506c-.964 0-1.828-.677-2.03-1.671zm748.23 4.048a2.087 2.087 0 0 1-1.614-2.478 2.083 2.083 0 0 1 2.477-1.612 2.07 2.07 0 0 1 1.613 2.476c-.2.98-1.08 1.656-2.045 1.656-.144 0-.288-.014-.432-.042zm-745.134 9.75a2.1 2.1 0 0 1 1.542-2.536 2.085 2.085 0 0 1 2.52 1.543 2.085 2.085 0 0 1-1.527 2.52 2.104 2.104 0 0 1-2.535-1.528zm741.878 3.917a2.072 2.072 0 0 1-1.512-2.535 2.084 2.084 0 0 1 2.535-1.512 2.101 2.101 0 0 1 1.512 2.534 2.087 2.087 0 0 1-2.016 1.586c-.173 0-.346-.03-.519-.073zm-738.263 9.737a2.087 2.087 0 0 1 1.44-2.578 2.08 2.08 0 0 1 2.579 1.44 2.08 2.08 0 0 1-1.426 2.578 2.068 2.068 0 0 1-.576.085 2.092 2.092 0 0 1-2.017-1.525zm734.505 3.8a2.08 2.08 0 0 1-1.412-2.592 2.085 2.085 0 0 1 2.592-1.426 2.095 2.095 0 0 1 1.426 2.593 2.122 2.122 0 0 1-2.016 1.512 2.17 2.17 0 0 1-.59-.087zm-730.386 9.722a2.093 2.093 0 0 1 1.34-2.636 2.093 2.093 0 0 1 2.635 1.34v.016a2.076 2.076 0 0 1-1.987 2.72c-.879 0-1.7-.56-1.988-1.44zm726.137 3.672a2.107 2.107 0 0 1-1.325-2.65 2.096 2.096 0 0 1 2.65-1.325c1.08.375 1.685 1.556 1.31 2.65a2.079 2.079 0 0 1-1.973 1.426c-.216 0-.445-.029-.662-.1zm-721.5 9.722a2.084 2.084 0 0 1 1.24-2.678 2.079 2.079 0 0 1 2.678 1.238 2.097 2.097 0 0 1-1.238 2.693c-.23.088-.476.115-.72.115-.85 0-1.642-.519-1.96-1.368zm716.762 3.47c-1.08-.403-1.642-1.612-1.225-2.693a2.079 2.079 0 0 1 2.68-1.224 2.116 2.116 0 0 1 1.238 2.695 2.093 2.093 0 0 1-1.959 1.352c-.245 0-.49-.042-.734-.13zm-711.634 9.752a2.094 2.094 0 0 1 1.138-2.738 2.105 2.105 0 0 1 2.736 1.153 2.098 2.098 0 0 1-1.944 2.88c-.821 0-1.599-.49-1.93-1.295zm706.406 3.268a2.09 2.09 0 0 1-1.124-2.736 2.076 2.076 0 0 1 2.724-1.122c1.064.43 1.568 1.67 1.136 2.735a2.13 2.13 0 0 1-1.944 1.283 2.19 2.19 0 0 1-.792-.16zm-700.804 9.736a2.094 2.094 0 0 1 1.052-2.765 2.09 2.09 0 1 1 .864 3.99 2.132 2.132 0 0 1-1.916-1.225zm695.1 3.083a2.109 2.109 0 0 1-1.035-2.78 2.088 2.088 0 0 1 2.778-1.023c1.051.49 1.512 1.728 1.023 2.765a2.07 2.07 0 0 1-1.901 1.224c-.288 0-.59-.057-.865-.186zm-689.008 9.706a2.112 2.112 0 0 1 .937-2.807 2.087 2.087 0 0 1 2.808.935 2.09 2.09 0 0 1-.936 2.808c-.303.144-.62.217-.936.217a2.096 2.096 0 0 1-1.873-1.153zm682.83 2.88a2.08 2.08 0 0 1-.92-2.807 2.096 2.096 0 0 1 2.807-.923c1.022.533 1.44 1.786.921 2.809a2.097 2.097 0 0 1-1.872 1.152c-.317 0-.634-.072-.936-.23zm-676.262 9.664c-.562-1.007-.187-2.274.82-2.837a2.073 2.073 0 0 1 2.838.835 2.088 2.088 0 0 1-.821 2.837 2.125 2.125 0 0 1-1.008.245 2.078 2.078 0 0 1-1.83-1.08zm669.623 2.71a2.088 2.088 0 0 1-.82-2.84 2.084 2.084 0 0 1 2.836-.819 2.087 2.087 0 1 1-2.016 3.658zm-662.61 9.575a2.08 2.08 0 0 1 .72-2.85 2.073 2.073 0 0 1 2.867.72c.59.992.273 2.275-.72 2.865a2.047 2.047 0 0 1-1.066.288 2.07 2.07 0 0 1-1.8-1.023zm655.51 2.535a2.081 2.081 0 0 1-.706-2.865 2.07 2.07 0 0 1 2.866-.707 2.072 2.072 0 0 1 .705 2.867 2.083 2.083 0 0 1-2.866.705zm-648.05 9.492a2.075 2.075 0 0 1 .62-2.88 2.082 2.082 0 0 1 2.895.618c.62.965.346 2.262-.62 2.88a2.09 2.09 0 0 1-1.137.347 2.096 2.096 0 0 1-1.757-.965zm640.517 2.36a2.09 2.09 0 1 1 2.895-.604 2.08 2.08 0 0 1-1.757.952c-.389 0-.778-.117-1.138-.347zm-632.61 9.376a2.069 2.069 0 0 1 .505-2.907 2.083 2.083 0 0 1 2.909.517c.662.95.432 2.246-.504 2.909a2.1 2.1 0 0 1-1.21.374 2.048 2.048 0 0 1-1.7-.893zm624.646 2.19a2.085 2.085 0 0 1-.504-2.91 2.084 2.084 0 0 1 2.909-.504c.95.663 1.167 1.975.504 2.924a2.116 2.116 0 0 1-1.714.878 2.05 2.05 0 0 1-1.195-.387zm-616.335 9.26a2.12 2.12 0 0 1 .403-2.938c.922-.691 2.246-.518 2.938.405.691.92.518 2.23-.403 2.938a2.122 2.122 0 0 1-2.938-.405zm607.938 2.002a2.09 2.09 0 1 1 2.55-3.312 2.102 2.102 0 0 1 .389 2.923 2.072 2.072 0 0 1-1.657.82c-.446 0-.893-.143-1.282-.431zm-599.196 9.116v-.014a2.066 2.066 0 0 1 .302-2.924 2.083 2.083 0 0 1 2.938.288c.72.893.59 2.218-.302 2.938-.39.317-.85.476-1.325.476a2.077 2.077 0 0 1-1.613-.764zm590.411 1.844a2.082 2.082 0 0 1-.286-2.938 2.083 2.083 0 0 1 2.938-.288 2.1 2.1 0 0 1 .286 2.952v-.014a2.075 2.075 0 0 1-1.613.763c-.474 0-.936-.158-1.325-.475zm-581.28 8.943a2.096 2.096 0 0 1 .201-2.952 2.078 2.078 0 0 1 2.938.187c.763.88.677 2.19-.187 2.953a2.091 2.091 0 0 1-1.383.518c-.576 0-1.152-.23-1.57-.706zm572.077 1.686a2.094 2.094 0 0 1-.172-2.953 2.094 2.094 0 0 1 2.952-.173 2.094 2.094 0 0 1-1.383 3.658 2.07 2.07 0 0 1-1.397-.532zm-562.543 8.756a2.078 2.078 0 0 1 .072-2.952c.835-.791 2.16-.75 2.966.086.778.835.75 2.16-.086 2.952a2.061 2.061 0 0 1-1.44.576c-.547 0-1.11-.23-1.512-.662zm552.966 1.527a2.091 2.091 0 0 1-.072-2.953 2.109 2.109 0 0 1 2.967-.072c.837.807.864 2.133.057 2.967a2.09 2.09 0 0 1-1.512.634 2.061 2.061 0 0 1-1.44-.576zm-543.072 8.569a2.108 2.108 0 0 1-.029-2.967 2.076 2.076 0 0 1 2.952-.013c.821.805.836 2.13.03 2.951-.404.42-.951.62-1.484.62s-1.066-.2-1.47-.591zm533.122 1.368a2.092 2.092 0 0 1 .041-2.965c.821-.808 2.146-.778 2.953.041a2.095 2.095 0 0 1-.043 2.967 2.07 2.07 0 0 1-1.454.576 2.09 2.09 0 0 1-1.497-.619zM330.8 788.21a2.11 2.11 0 0 1-.13-2.967 2.094 2.094 0 0 1 2.953-.128 2.09 2.09 0 0 1 .13 2.951c-.404.461-.98.677-1.542.677a2.106 2.106 0 0 1-1.41-.533zm512.554 1.196a2.08 2.08 0 0 1 .159-2.953 2.082 2.082 0 0 1 2.954.16 2.094 2.094 0 0 1-.16 2.951c-.404.36-.893.534-1.397.534a2.081 2.081 0 0 1-1.556-.692zM341.4 797.543h.014a2.085 2.085 0 0 1-.244-2.951 2.079 2.079 0 0 1 2.938-.247c.892.75.993 2.074.244 2.954a2.14 2.14 0 0 1-1.598.733c-.476 0-.95-.158-1.354-.49zm491.311 1.037a2.08 2.08 0 0 1 .245-2.938 2.098 2.098 0 0 1 2.952.259c.735.878.62 2.203-.259 2.938v.016a2.124 2.124 0 0 1-1.34.474 2.018 2.018 0 0 1-1.598-.75zm-480.365 7.893a2.088 2.088 0 0 1-.346-2.938 2.068 2.068 0 0 1 2.923-.347 2.102 2.102 0 0 1 .36 2.938 2.129 2.129 0 0 1-1.656.792 2.07 2.07 0 0 1-1.281-.445zm469.376.892c-.72-.907-.547-2.218.36-2.938a2.092 2.092 0 0 1 2.939.376 2.072 2.072 0 0 1-.375 2.922 2.043 2.043 0 0 1-1.282.446c-.619 0-1.238-.273-1.642-.806zm-458.128 7.634a2.106 2.106 0 0 1-.447-2.925 2.078 2.078 0 0 1 2.924-.446 2.089 2.089 0 0 1 .446 2.91 2.069 2.069 0 0 1-1.685.863c-.432 0-.864-.13-1.238-.402zm446.823.733c-.676-.921-.461-2.23.475-2.909a2.084 2.084 0 0 1 2.924.476 2.08 2.08 0 0 1-.49 2.909h.016a2.073 2.073 0 0 1-2.925-.475zm-435.259 7.374a2.087 2.087 0 0 1-.561-2.894 2.074 2.074 0 0 1 2.894-.562c.965.635 1.21 1.946.577 2.895a2.097 2.097 0 0 1-2.91.561zm423.65.592a2.09 2.09 0 0 1 .591-2.896 2.079 2.079 0 0 1 2.895.576c.634.95.375 2.247-.59 2.895-.346.23-.75.346-1.153.346-.676 0-1.339-.316-1.742-.92zm-411.811 7.086c-.98-.605-1.268-1.902-.663-2.88a2.097 2.097 0 0 1 2.88-.679c.98.621 1.283 1.901.663 2.88a2.094 2.094 0 0 1-1.771.994c-.375 0-.764-.1-1.11-.315zm399.916.43c-.605-.977-.288-2.275.691-2.88a2.09 2.09 0 0 1 2.88.692c.605.98.288 2.275-.69 2.88-.347.202-.721.302-1.095.302a2.082 2.082 0 0 1-1.786-.993zm-387.79 6.798a2.08 2.08 0 0 1-.777-2.85 2.091 2.091 0 0 1 2.851-.777c.994.574 1.354 1.857.778 2.85a2.092 2.092 0 0 1-2.852.777zm375.634.288a2.083 2.083 0 0 1 .792-2.851 2.085 2.085 0 0 1 2.852.793 2.093 2.093 0 0 1-1.815 3.11c-.734 0-1.44-.375-1.829-1.052zm-363.262 6.496a2.08 2.08 0 0 1-.879-2.823 2.064 2.064 0 0 1 2.809-.879 2.07 2.07 0 0 1 .878 2.825 2.082 2.082 0 0 1-1.843 1.122c-.332 0-.663-.087-.965-.245zm350.848.115a2.078 2.078 0 0 1 .893-2.808c1.022-.533 2.277-.13 2.823.893a2.104 2.104 0 0 1-.906 2.822c-.304.159-.635.23-.952.23a2.073 2.073 0 0 1-1.858-1.137zm-338.247 6.193a2.077 2.077 0 0 1-.979-2.78 2.088 2.088 0 0 1 2.794-.978c1.037.489 1.47 1.743.98 2.779a2.102 2.102 0 0 1-1.887 1.195c-.303 0-.62-.07-.908-.216zm325.587-.029a2.096 2.096 0 0 1 .994-2.78 2.105 2.105 0 0 1 2.794 1.009 2.115 2.115 0 0 1-1.008 2.78 2.075 2.075 0 0 1-2.78-1.01v.001zm-312.754 5.876a2.099 2.099 0 0 1-1.095-2.75 2.098 2.098 0 0 1 2.75-1.08 2.086 2.086 0 1 1-1.656 3.83zm299.865-.186a2.092 2.092 0 0 1 1.109-2.737 2.073 2.073 0 0 1 2.736 1.108 2.083 2.083 0 0 1-1.095 2.737 2.1 2.1 0 0 1-.82.173 2.104 2.104 0 0 1-1.93-1.28zm-286.831 5.558c-1.08-.432-1.613-1.642-1.196-2.707a2.095 2.095 0 0 1 2.708-1.196 2.096 2.096 0 0 1-.764 4.049c-.244 0-.504-.058-.748-.146zm273.754-.346a2.067 2.067 0 0 1 1.195-2.691 2.09 2.09 0 0 1 2.708 1.195 2.097 2.097 0 0 1-1.21 2.708c-.245.085-.49.128-.75.128a2.077 2.077 0 0 1-1.943-1.34zm-260.505 5.23a2.086 2.086 0 0 1-1.281-2.652 2.097 2.097 0 0 1 2.664-1.296 2.082 2.082 0 0 1 1.282 2.665 2.096 2.096 0 0 1-1.973 1.411c-.23 0-.461-.043-.692-.128zm247.226-.506c-.373-1.094.216-2.29 1.296-2.65a2.086 2.086 0 1 1 1.354 3.946 1.81 1.81 0 0 1-.677.116 2.084 2.084 0 0 1-1.973-1.412zm-233.788 4.911c-1.095-.345-1.729-1.512-1.383-2.605a2.094 2.094 0 0 1 2.607-1.398c1.109.345 1.728 1.513 1.382 2.606a2.078 2.078 0 0 1-2.002 1.484c-.201 0-.403-.029-.604-.087zm220.35-.69a2.09 2.09 0 0 1 1.398-2.608 2.082 2.082 0 0 1 2.592 1.413 2.077 2.077 0 0 1-2.002 2.678 2.06 2.06 0 0 1-1.987-1.482zm-206.755 4.579a2.08 2.08 0 0 1-1.483-2.564 2.074 2.074 0 0 1 2.549-1.467 2.07 2.07 0 0 1 1.483 2.548 2.088 2.088 0 0 1-2.016 1.555c-.173 0-.36-.027-.533-.072zm193.146-.864c-.288-1.11.39-2.247 1.498-2.55a2.098 2.098 0 0 1 1.053 4.063 2.213 2.213 0 0 1-.52.058 2.09 2.09 0 0 1-2.031-1.571zm-179.435 4.248v.015a2.093 2.093 0 0 1-1.57-2.506 2.096 2.096 0 0 1 2.506-1.584v.016a2.07 2.07 0 0 1 1.57 2.49 2.09 2.09 0 0 1-2.03 1.627 1.79 1.79 0 0 1-.476-.058zm165.753-1.037a2.093 2.093 0 0 1 1.584-2.491h.015a2.1 2.1 0 0 1 2.491 1.584 2.094 2.094 0 0 1-1.597 2.492v.016a2.48 2.48 0 0 1-.448.041c-.965 0-1.83-.662-2.045-1.642zm-151.913 3.918a2.098 2.098 0 0 1-1.67-2.433 2.095 2.095 0 0 1 2.448-1.672 2.1 2.1 0 0 1 1.67 2.434 2.107 2.107 0 0 1-2.059 1.714c-.13 0-.26-.014-.389-.043zm138.116-1.224a2.095 2.095 0 0 1 1.685-2.434 2.101 2.101 0 0 1 2.434 1.685c.201 1.138-.548 2.234-1.685 2.434-.128.014-.26.029-.39.029a2.09 2.09 0 0 1-2.044-1.714zm-124.175 3.587a2.086 2.086 0 0 1-1.757-2.378 2.094 2.094 0 0 1 2.377-1.757 2.095 2.095 0 0 1 1.757 2.377 2.098 2.098 0 0 1-2.06 1.786c-.115 0-.216-.015-.317-.028zm110.291-1.413a2.072 2.072 0 0 1 1.772-2.362 2.093 2.093 0 0 1 2.362 1.772c.174 1.138-.634 2.203-1.772 2.363-.1.013-.202.028-.302.028a2.076 2.076 0 0 1-2.06-1.8zm-96.292 3.255c-1.138-.13-1.973-1.166-1.829-2.304a2.07 2.07 0 0 1 2.304-1.844 2.087 2.087 0 0 1 1.844 2.306 2.076 2.076 0 0 1-2.074 1.858c-.086 0-.158 0-.245-.016zm82.337-1.584a2.068 2.068 0 0 1 1.857-2.29 2.077 2.077 0 0 1 2.29 1.858 2.073 2.073 0 0 1-1.857 2.29c-.072.014-.145.014-.217.014-1.05 0-1.973-.792-2.073-1.872zm-68.266 2.925a2.095 2.095 0 0 1-1.916-2.248 2.084 2.084 0 0 1 2.233-1.93 2.096 2.096 0 0 1 1.93 2.247 2.102 2.102 0 0 1-2.089 1.931h-.158zm54.252-1.773a2.082 2.082 0 0 1 1.945-2.218 2.083 2.083 0 0 1 2.232 1.93c.072 1.154-.792 2.16-1.944 2.234h-.144a2.082 2.082 0 0 1-2.089-1.946zm-40.138 2.578a2.104 2.104 0 0 1-2.016-2.175 2.102 2.102 0 0 1 2.174-2.001 2.095 2.095 0 0 1 2.017 2.174 2.102 2.102 0 0 1-2.089 2.002h-.086zm26.096-1.93a2.092 2.092 0 0 1 2.017-2.16 2.113 2.113 0 0 1 2.16 2.03 2.072 2.072 0 0 1-2.016 2.148v.013h-.072a2.097 2.097 0 0 1-2.089-2.03zm-11.968 2.233a2.102 2.102 0 0 1-2.088-2.103c0-1.152.936-2.073 2.088-2.073a2.08 2.08 0 0 1 2.089 2.087 2.089 2.089 0 0 1-2.089 2.089z" fill="#000"></path><path fill="#000" d="m752.73 146.467 13.962 20.753-24.953 1.72zM1079.001 641.526c-.548 0-1.096-.23-1.483-.62a2.076 2.076 0 0 1-.605-1.468c0-.144.014-.275.027-.404a1.97 1.97 0 0 1 .13-.403 2.06 2.06 0 0 1 .189-.36c.072-.1.157-.216.259-.302.49-.491 1.21-.72 1.885-.576.13.027.26.057.39.115.13.057.245.115.36.187.116.085.215.173.317.274.101.086.186.201.258.302.073.115.145.245.189.36.056.13.1.26.13.403.027.129.041.26.041.404a2.095 2.095 0 0 1-.935 1.728c-.115.072-.23.144-.36.202-.13.043-.26.086-.39.115-.13.029-.272.043-.402.043M580.257 2.103a2.08 2.08 0 0 1 2.061-2.102c1.151-.015 2.103.923 2.103 2.06a2.09 2.09 0 0 1-2.06 2.116h-.015a2.077 2.077 0 0 1-2.089-2.074zm16.548 2.132a2.09 2.09 0 0 1-2.045-2.132 2.07 2.07 0 0 1 2.117-2.045 2.092 2.092 0 0 1 2.061 2.119 2.105 2.105 0 0 1-2.102 2.058h-.03zm-28.847.274c-1.15.057-2.117-.85-2.16-2.002-.058-1.152.85-2.116 2.003-2.16a2.08 2.08 0 0 1 2.16 2.001 2.103 2.103 0 0 1-2.003 2.176c-1.15.042 0 0 0-.015zm43.28.172a2.078 2.078 0 0 1-1.988-2.174 2.098 2.098 0 0 1 2.175-2 2.111 2.111 0 0 1 2 2.187 2.097 2.097 0 0 1-2.088 1.987h-.1zm-59.913-1.368a2.089 2.089 0 0 1 1.943-2.216c1.154-.088 2.146.792 2.234 1.943a2.095 2.095 0 0 1-1.96 2.217h-.13a2.09 2.09 0 0 1-2.087-1.944zm74.33 2.218a2.082 2.082 0 0 1-1.93-2.232 2.082 2.082 0 0 1 2.23-1.93 2.083 2.083 0 0 1-.143 4.162h-.158zm-88.76-1.022a2.078 2.078 0 0 1 1.885-2.26 2.084 2.084 0 0 1 2.275 1.87 2.085 2.085 0 0 1-1.887 2.276c-.072 0-.13.015-.2.015a2.091 2.091 0 0 1-2.074-1.901zm103.147 2.275a2.09 2.09 0 0 1-1.874-2.29 2.088 2.088 0 0 1 2.291-1.858 2.062 2.062 0 0 1 1.858 2.276 2.079 2.079 0 0 1-2.06 1.888c-.073 0-.143 0-.215-.016zm-117.537-.662a2.066 2.066 0 0 1 1.816-2.318 2.068 2.068 0 0 1 2.319 1.814c.144 1.137-.678 2.174-1.816 2.32-.086.014-.171.014-.258.014a2.082 2.082 0 0 1-2.06-1.83zM654.37 8.44a2.07 2.07 0 0 1-1.784-2.346 2.059 2.059 0 0 1 2.333-1.787 2.083 2.083 0 0 1 1.8 2.333 2.093 2.093 0 0 1-2.06 1.815c-.1 0-.188 0-.289-.015zm-146.21-.315a2.096 2.096 0 0 1 1.76-2.378 2.09 2.09 0 0 1 2.36 1.757 2.084 2.084 0 0 1-1.743 2.377c-.115.014-.216.028-.315.028a2.09 2.09 0 0 1-2.061-1.784zM668.674 10.5a2.095 2.095 0 0 1-1.743-2.39 2.083 2.083 0 0 1 2.391-1.728v-.016a2.084 2.084 0 0 1 1.727 2.391 2.076 2.076 0 0 1-2.06 1.773c-.1 0-.216-.016-.315-.03zm-174.798.043a2.076 2.076 0 0 1 1.684-2.418 2.07 2.07 0 0 1 2.421 1.685c.216 1.122-.549 2.218-1.687 2.418a2.09 2.09 0 0 1-2.418-1.685zm189.013 2.405a2.082 2.082 0 0 1-1.658-2.434c.202-1.122 1.298-1.872 2.435-1.669a2.086 2.086 0 0 1 1.655 2.433 2.093 2.093 0 0 1-2.045 1.715c-.13 0-.258-.015-.387-.045zm-203.213.405a2.072 2.072 0 0 1 1.612-2.463v-.016a2.117 2.117 0 0 1 2.477 1.63 2.095 2.095 0 0 1-2.044 2.504c-.98 0-1.845-.677-2.045-1.655zm217.37 2.463a2.105 2.105 0 0 1-1.6-2.493 2.087 2.087 0 0 1 2.477-1.598 2.095 2.095 0 0 1 1.6 2.49 2.109 2.109 0 0 1-2.477 1.6zm-231.498.747a2.07 2.07 0 0 1 1.554-2.504c1.108-.276 2.232.416 2.505 1.54.261 1.11-.43 2.247-1.54 2.505a2.09 2.09 0 0 1-2.52-1.541zM711.1 19.07v-.013a2.085 2.085 0 1 1 2.52-1.512 2.076 2.076 0 0 1-2.017 1.583c-.173 0-.33-.013-.503-.058zm-259.583 1.11a2.09 2.09 0 0 1 4.034-1.096 2.088 2.088 0 0 1-1.47 2.564 2.093 2.093 0 0 1-2.565-1.468zm273.538 2.535h.015a2.087 2.087 0 0 1-1.456-2.565 2.084 2.084 0 0 1 4.018 1.11 2.091 2.091 0 0 1-2.014 1.526c-.173 0-.376-.013-.563-.07zm-287.45 1.468a2.087 2.087 0 0 1 1.396-2.606 2.098 2.098 0 0 1 2.593 1.41 2.08 2.08 0 0 1-2 2.68c-.895 0-1.73-.577-1.99-1.484zM738.91 26.76a2.072 2.072 0 0 1-1.368-2.606 2.091 2.091 0 0 1 2.608-1.382 2.102 2.102 0 0 1 1.381 2.605 2.09 2.09 0 0 1-2 1.484c-.203 0-.403-.03-.62-.101zm-315.116 1.814a2.091 2.091 0 0 1 1.34-2.634 2.098 2.098 0 0 1 2.636 1.325c.36 1.093-.246 2.29-1.326 2.636a2.194 2.194 0 0 1-.663.114 2.11 2.11 0 0 1-1.987-1.44zm328.856 2.622a2.1 2.1 0 0 1-1.31-2.65 2.093 2.093 0 0 1 2.65-1.297c1.095.36 1.67 1.556 1.31 2.652a2.102 2.102 0 0 1-1.988 1.41c-.214 0-.445-.043-.662-.115zM410.128 33.37a2.097 2.097 0 0 1 1.251-2.677 2.095 2.095 0 0 1 2.68 1.253 2.104 2.104 0 0 1-1.254 2.677 2.028 2.028 0 0 1-.706.115 2.088 2.088 0 0 1-1.971-1.368zm356.132 2.652a2.09 2.09 0 0 1-1.239-2.68 2.1 2.1 0 0 1 2.679-1.24 2.104 2.104 0 0 1 1.24 2.694 2.113 2.113 0 0 1-1.96 1.355c-.245 0-.488-.044-.72-.13zm-369.657 2.52a2.09 2.09 0 0 1 1.18-2.709 2.093 2.093 0 0 1 2.708 1.181c.418 1.066-.114 2.275-1.18 2.708-.26.087-.505.145-.763.145a2.1 2.1 0 0 1-1.945-1.325zm383.108 2.692a2.092 2.092 0 0 1-1.152-2.722 2.08 2.08 0 0 1 2.708-1.152 2.07 2.07 0 0 1 1.152 2.722c-.317.808-1.108 1.297-1.93 1.297a2.13 2.13 0 0 1-.778-.145zM383.223 44.1c-.446-1.066.043-2.29 1.095-2.735a2.084 2.084 0 1 1 1.641 3.83 2.042 2.042 0 0 1-.819.172 2.094 2.094 0 0 1-1.917-1.267zm409.796 2.723a2.082 2.082 0 0 1-1.08-2.75 2.092 2.092 0 0 1 2.752-1.08c1.05.475 1.54 1.697 1.066 2.75a2.061 2.061 0 0 1-1.902 1.252c-.289 0-.563-.058-.836-.172zm-422.96 3.183c-.49-1.038-.028-2.275 1.023-2.767a2.091 2.091 0 0 1 2.765 1.024c.476 1.05.03 2.29-1.022 2.766-.274.13-.576.2-.863.2-.793 0-1.555-.461-1.902-1.223zm436.096 2.778a2.094 2.094 0 0 1-.995-2.778 2.091 2.091 0 0 1 2.78-.995 2.09 2.09 0 0 1 .993 2.78 2.098 2.098 0 0 1-1.885 1.195 2.18 2.18 0 0 1-.893-.202zm-449.099 3.514c-.506-1.037-.088-2.29.935-2.794a2.09 2.09 0 0 1 2.81.936c.502 1.039.084 2.292-.952 2.794a2.08 2.08 0 0 1-2.793-.936zm462.06 2.823c-1.022-.531-1.44-1.784-.907-2.807a2.083 2.083 0 1 1 3.716 1.885 2.074 2.074 0 0 1-1.858 1.138c-.318 0-.648-.072-.95-.216zm-474.878 3.817a2.06 2.06 0 0 1 .863-2.809c1.008-.547 2.275-.157 2.823.866.533 1.007.16 2.275-.863 2.807a2.08 2.08 0 0 1-2.823-.864zm487.666 2.88a2.074 2.074 0 0 1-.835-2.836 2.085 2.085 0 0 1 2.823-.836 2.097 2.097 0 0 1 .835 2.837 2.072 2.072 0 0 1-1.829 1.08 2.07 2.07 0 0 1-.994-.245zm-500.296 4.148a2.086 2.086 0 0 1 .777-2.85 2.092 2.092 0 0 1 2.852.777 2.106 2.106 0 0 1-.778 2.85 2.112 2.112 0 0 1-1.038.276c-.72 0-1.44-.39-1.813-1.053zm512.885 2.91a2.082 2.082 0 0 1-.765-2.853 2.094 2.094 0 0 1 2.852-.763c.994.59 1.34 1.858.763 2.852a2.075 2.075 0 0 1-1.814 1.037c-.346 0-.706-.085-1.036-.273zm-525.316 4.45c-.605-.979-.286-2.262.691-2.867a2.103 2.103 0 0 1 2.88.706c.591.98.276 2.263-.705 2.867-.345.2-.72.303-1.08.303a2.08 2.08 0 0 1-1.786-1.01zm-12.227 7.719a2.088 2.088 0 1 1 2.895.62c-.36.23-.75.33-1.138.33-.677 0-1.354-.33-1.757-.95zm-11.997 8.065a2.077 2.077 0 0 1 .534-2.893 2.087 2.087 0 0 1 2.91.532c.646.95.401 2.246-.535 2.895h-.013c-.36.258-.765.373-1.166.373a2.073 2.073 0 0 1-1.73-.907zm-11.767 8.398a2.09 2.09 0 0 1 .448-2.91 2.092 2.092 0 0 1 2.923.46 2.077 2.077 0 0 1-.461 2.91 2.071 2.071 0 0 1-2.91-.46zm-11.536 8.74a2.101 2.101 0 0 1 .375-2.936v.014a2.07 2.07 0 0 1 2.924.36 2.088 2.088 0 1 1-3.299 2.562zm-11.275 9.045a2.063 2.063 0 0 1 .287-2.924 2.083 2.083 0 0 1 2.938.288 2.082 2.082 0 0 1-.288 2.938 2.065 2.065 0 0 1-2.937-.302zm-11.019 9.376c-.763-.865-.662-2.175.202-2.938a2.079 2.079 0 0 1 2.938.216c.763.864.678 2.19-.202 2.938a2.032 2.032 0 0 1-1.367.504 2.017 2.017 0 0 1-1.57-.72zM238.6 138.36a2.09 2.09 0 0 1 .128-2.95c.85-.779 2.16-.72 2.938.127a2.078 2.078 0 0 1-1.526 3.5c-.562 0-1.122-.23-1.54-.677zm-10.472 9.98a2.072 2.072 0 0 1 .03-2.937c.836-.807 2.161-.792 2.952.03a2.076 2.076 0 0 1-.042 2.951c-.405.405-.923.59-1.44.59a2.03 2.03 0 0 1-1.5-.633zm-10.196 10.298c-.82-.806-.848-2.131-.042-2.95a2.077 2.077 0 0 1 2.951-.045 2.06 2.06 0 0 1 .043 2.938c-.403.432-.949.633-1.498.633a2.095 2.095 0 0 1-1.454-.576zm-9.894 10.558a2.077 2.077 0 0 1-.13-2.94 2.09 2.09 0 0 1 3.083 2.823c-.417.447-.98.663-1.542.663a2.06 2.06 0 0 1-1.411-.546zm-9.59 10.86a2.11 2.11 0 0 1-.218-2.953 2.096 2.096 0 0 1 2.954-.203c.864.75.963 2.075.2 2.938-.403.475-.98.72-1.57.72-.49 0-.965-.157-1.367-.503zm-9.277 11.116a2.1 2.1 0 0 1-.302-2.938 2.083 2.083 0 0 1 2.938-.288c.892.72 1.022 2.045.302 2.938a2.158 2.158 0 0 1-1.627.764c-.46 0-.922-.159-1.311-.476zm-8.958 11.38c-.922-.693-1.08-2.004-.389-2.926a2.102 2.102 0 0 1 2.938-.373 2.084 2.084 0 0 1 .374 2.923 2.097 2.097 0 0 1-1.656.806c-.446 0-.893-.128-1.267-.43zm-8.641 11.65a2.107 2.107 0 0 1-.46-2.924 2.088 2.088 0 1 1 1.685 3.312c-.417 0-.85-.13-1.225-.387zm-8.296 11.882a2.107 2.107 0 0 1-.547-2.91h.016a2.066 2.066 0 0 1 2.893-.533 2.083 2.083 0 0 1 .547 2.896 2.094 2.094 0 0 1-1.727.907c-.404 0-.822-.116-1.182-.36zm-7.95 12.113a2.076 2.076 0 0 1-.618-2.88 2.09 2.09 0 0 1 2.88-.636 2.093 2.093 0 0 1 .619 2.895c-.39.62-1.066.95-1.743.95-.389 0-.778-.1-1.138-.33zm-7.59 12.356a2.092 2.092 0 0 1-.72-2.866 2.085 2.085 0 0 1 2.866-.72 2.07 2.07 0 0 1 .707 2.866 2.084 2.084 0 0 1-1.787 1.007c-.36 0-.733-.086-1.066-.287zm-7.244 12.558a2.063 2.063 0 0 1-.79-2.836 2.066 2.066 0 0 1 2.835-.794c1.01.563 1.37 1.83.794 2.839a2.093 2.093 0 0 1-1.816 1.064c-.345 0-.705-.086-1.023-.273zm-6.87 12.776a2.08 2.08 0 0 1-.877-2.823c.533-1.01 1.8-1.413 2.807-.866a2.078 2.078 0 0 1 .88 2.809 2.102 2.102 0 0 1-1.845 1.124c-.331 0-.662-.087-.965-.244zm-6.51 12.962a2.06 2.06 0 0 1-.95-2.782 2.08 2.08 0 0 1 2.78-.964 2.092 2.092 0 0 1 .965 2.794 2.095 2.095 0 0 1-1.873 1.166 1.94 1.94 0 0 1-.921-.214zm-6.12 13.162a2.087 2.087 0 0 1-1.036-2.766 2.1 2.1 0 0 1 2.765-1.035 2.1 2.1 0 0 1 1.036 2.765 2.091 2.091 0 0 1-2.765 1.036zm-5.732 13.336c-1.065-.447-1.569-1.67-1.122-2.722a2.09 2.09 0 0 1 2.735-1.124 2.083 2.083 0 0 1 1.11 2.724 2.077 2.077 0 0 1-1.931 1.28 1.95 1.95 0 0 1-.792-.158zm-5.343 13.495c-1.08-.404-1.614-1.613-1.209-2.694a2.088 2.088 0 0 1 2.706-1.195c1.066.403 1.599 1.613 1.197 2.693a2.08 2.08 0 0 1-1.946 1.341c-.259 0-.504-.045-.748-.145zm-4.955 13.667a2.11 2.11 0 0 1-1.282-2.663c.39-1.08 1.585-1.67 2.665-1.283a2.097 2.097 0 0 1 1.283 2.666 2.086 2.086 0 0 1-1.974 1.395c-.23 0-.46-.043-.692-.115zm-4.55 13.797a2.094 2.094 0 0 1-1.355-2.62c.36-1.096 1.527-1.713 2.622-1.353 1.094.344 1.715 1.51 1.355 2.605v.014a2.087 2.087 0 0 1-1.99 1.456c-.2 0-.417-.03-.633-.102zm-4.134 13.927a2.087 2.087 0 0 1-1.44-2.578 2.096 2.096 0 0 1 2.592-1.426 2.08 2.08 0 0 1 1.426 2.578 2.09 2.09 0 0 1-2 1.512c-.19 0-.39-.028-.578-.086zm-3.715 13.999c-1.108-.272-1.787-1.41-1.513-2.535a2.116 2.116 0 0 1 2.549-1.51 2.093 2.093 0 0 1-.518 4.117 2.12 2.12 0 0 1-.518-.072zm-3.298 14.1a2.066 2.066 0 0 1-1.585-2.478 2.068 2.068 0 0 1 2.491-1.583 2.086 2.086 0 0 1 1.586 2.49v-.012a2.091 2.091 0 0 1-2.045 1.64c-.144 0-.304-.014-.447-.058zm-2.896 14.2a2.098 2.098 0 0 1-1.656-2.449 2.098 2.098 0 0 1 2.45-1.656 2.098 2.098 0 0 1 1.656 2.449c-.203.995-1.067 1.7-2.045 1.7-.146 0-.274-.015-.405-.044zm-2.463 14.274a2.081 2.081 0 0 1-1.726-2.393 2.087 2.087 0 0 1 4.119.662 2.1 2.1 0 0 1-2.061 1.758c-.116 0-.23-.014-.332-.027zm-2.06 14.328a2.09 2.09 0 0 1-1.8-2.331 2.1 2.1 0 0 1 2.35-1.8 2.11 2.11 0 0 1 1.8 2.347 2.085 2.085 0 0 1-2.074 1.8c-.086 0-.189 0-.275-.016zm-1.626 14.402a2.11 2.11 0 0 1-1.873-2.304 2.096 2.096 0 0 1 2.29-1.858c1.154.13 1.988 1.152 1.858 2.29a2.067 2.067 0 0 1-2.074 1.872h-.201zm-1.225 14.431a2.09 2.09 0 0 1-1.93-2.23 2.092 2.092 0 0 1 2.234-1.93 2.08 2.08 0 0 1 1.929 2.232 2.075 2.075 0 0 1-2.073 1.928h-.16zm-.792 14.46a2.11 2.11 0 0 1-2.002-2.173 2.115 2.115 0 0 1 2.19-2.004 2.104 2.104 0 0 1 1.988 2.19 2.097 2.097 0 0 1-2.075 1.987h-.1zm-.373 14.474a2.073 2.073 0 0 1-2.06-2.117 2.081 2.081 0 1 1 4.164.072l-.001-.013a2.081 2.081 0 0 1-2.074 2.058h-.029zm-2.09 12.429a2.09 2.09 0 1 1 2.119 2.06h-.029a2.096 2.096 0 0 1-2.09-2.06zm.39 14.517a2.101 2.101 0 0 1 2.003-2.175 2.1 2.1 0 0 1 2.173 2.002 2.1 2.1 0 0 1-2.002 2.176h-.1c-1.094 0-2.017-.88-2.075-2.003zm.807 14.517a2.08 2.08 0 0 1 1.945-2.218 2.064 2.064 0 0 1 2.217 1.93 2.084 2.084 0 0 1-1.93 2.233h-.145c-1.094 0-2-.834-2.087-1.945zm1.237 14.505a2.088 2.088 0 0 1 1.873-2.29 2.083 2.083 0 1 1 .403 4.147c-.058.013-.128.013-.202.013a2.08 2.08 0 0 1-2.074-1.87zm1.644 14.443a2.077 2.077 0 0 1 1.813-2.331c1.138-.16 2.176.646 2.333 1.8a2.088 2.088 0 0 1-1.8 2.332c-.1.016-.186.016-.274.016a2.094 2.094 0 0 1-2.072-1.817zm2.072 14.402a2.113 2.113 0 0 1 1.73-2.405c1.136-.171 2.216.605 2.39 1.743a2.084 2.084 0 0 1-1.728 2.39c-.115.017-.217.03-.33.03a2.087 2.087 0 0 1-2.062-1.758zm2.492 14.316a2.09 2.09 0 0 1 1.672-2.434c1.122-.216 2.218.533 2.434 1.67v-.014a2.097 2.097 0 0 1-1.672 2.449c-.129.029-.26.029-.39.029a2.08 2.08 0 0 1-2.044-1.7zm2.909 14.26a2.092 2.092 0 0 1 1.599-2.493 2.078 2.078 0 0 1 2.478 1.6 2.079 2.079 0 0 1-1.586 2.475c-.157.03-.302.045-.459.045a2.09 2.09 0 0 1-2.032-1.627zm3.328 14.157c-.273-1.125.402-2.263 1.511-2.536 1.125-.273 2.263.403 2.536 1.513.274 1.122-.405 2.26-1.513 2.535a2.176 2.176 0 0 1-.519.058c-.922 0-1.771-.621-2.015-1.57zm3.745 14.056a2.088 2.088 0 1 1 4.018-1.14 2.11 2.11 0 0 1-1.456 2.58c-.186.058-.373.07-.562.07-.907 0-1.742-.59-2-1.51zm979.9 14.82a2.097 2.097 0 0 1-1.382-2.623 2.091 2.091 0 0 1 3.988 1.253 2.09 2.09 0 0 1-1.988 1.455 2.2 2.2 0 0 1-.618-.085zm-975.754-.88a2.085 2.085 0 1 1 3.975-1.253 2.074 2.074 0 0 1-1.367 2.608c-.203.07-.417.1-.62.1-.878 0-1.714-.562-1.988-1.455zm971.146 14.647a2.09 2.09 0 0 1-1.284-2.65 2.087 2.087 0 1 1 1.973 2.765c-.229 0-.459-.043-.69-.115zm-966.593-.836a2.099 2.099 0 0 1 1.296-2.664 2.08 2.08 0 0 1 2.648 1.296 2.09 2.09 0 0 1-1.281 2.652c-.23.085-.461.115-.692.115-.864 0-1.669-.533-1.971-1.399zm961.61 14.46a2.079 2.079 0 0 1-1.226-2.677 2.101 2.101 0 0 1 2.693-1.226 2.076 2.076 0 0 1 1.21 2.693 2.09 2.09 0 0 1-1.944 1.356 1.85 1.85 0 0 1-.734-.146zm-956.643-.792a2.076 2.076 0 0 1 1.21-2.693 2.093 2.093 0 0 1 2.693 1.21c.404 1.08-.13 2.29-1.21 2.693a2.258 2.258 0 0 1-.749.145c-.835 0-1.626-.52-1.944-1.355zm951.242 14.272a2.075 2.075 0 0 1-1.125-2.72 2.076 2.076 0 0 1 2.722-1.138 2.072 2.072 0 0 1 1.123 2.72 2.086 2.086 0 0 1-1.93 1.298c-.257 0-.532-.057-.79-.16zm-945.912-.79a2.088 2.088 0 0 1 1.138-2.724 2.07 2.07 0 0 1 2.72 1.124 2.07 2.07 0 0 1-1.123 2.722c-.26.115-.533.172-.807.172a2.138 2.138 0 0 1-1.928-1.294zm940.136 14.1c-1.052-.476-1.528-1.716-1.052-2.751v-.015c.462-1.053 1.7-1.514 2.752-1.053a2.095 2.095 0 0 1 1.05 2.766 2.113 2.113 0 0 1-1.916 1.24 2.18 2.18 0 0 1-.833-.188zm-934.391-.778a2.093 2.093 0 0 1 1.051-2.766 2.09 2.09 0 0 1 2.751 1.05c.477 1.053 0 2.29-1.051 2.766a2.18 2.18 0 0 1-.848.172 2.058 2.058 0 0 1-1.903-1.222zm928.227 13.912a2.085 2.085 0 0 1-.979-2.795 2.076 2.076 0 0 1 2.78-.965 2.076 2.076 0 0 1 .978 2.78 2.084 2.084 0 0 1-1.886 1.18c-.302 0-.605-.07-.893-.2zm-922.106-.763a2.073 2.073 0 0 1 .965-2.781c1.037-.504 2.291-.072 2.78.966a2.09 2.09 0 0 1-.966 2.793c-.288.13-.603.201-.905.201a2.07 2.07 0 0 1-1.874-1.18zm915.553 13.709c-1.022-.547-1.425-1.8-.892-2.823a2.081 2.081 0 0 1 2.808-.893 2.093 2.093 0 0 1 .891 2.823 2.102 2.102 0 0 1-1.857 1.123 2.05 2.05 0 0 1-.95-.23zm-909.056-.735a2.08 2.08 0 0 1 .891-2.808 2.075 2.075 0 0 1 2.809.879 2.098 2.098 0 0 1-.893 2.822c-.303.16-.634.232-.95.232a2.073 2.073 0 0 1-1.857-1.125zm902.142 13.466a2.074 2.074 0 0 1-.82-2.837h.014a2.065 2.065 0 0 1 2.822-.805c1.01.56 1.37 1.828.823 2.836a2.099 2.099 0 0 1-1.83 1.08c-.346 0-.69-.085-1.009-.274zm-895.273-.677a2.093 2.093 0 0 1 .807-2.837 2.104 2.104 0 0 1 2.852.807 2.104 2.104 0 0 1-.823 2.838 2.11 2.11 0 0 1-1.007.258c-.735 0-1.44-.389-1.829-1.066zm887.986 13.222a2.1 2.1 0 0 1-.733-2.865 2.097 2.097 0 0 1 2.866-.72c.992.59 1.309 1.858.72 2.85a2.066 2.066 0 0 1-1.786 1.023 2.02 2.02 0 0 1-1.067-.288zm-880.743-.647c-.59-.98-.259-2.263.736-2.853a2.075 2.075 0 0 1 2.852.72 2.088 2.088 0 0 1-.72 2.866c-.332.202-.707.29-1.068.29-.704 0-1.41-.36-1.8-1.023zm873.097 12.962a2.105 2.105 0 0 1-.648-2.88c.617-.966 1.915-1.268 2.88-.65a2.085 2.085 0 0 1 .648 2.88c-.39.634-1.066.98-1.758.98a2.13 2.13 0 0 1-1.122-.33zm-865.491-.592a2.108 2.108 0 0 1 .647-2.88 2.107 2.107 0 0 1 2.88.649 2.08 2.08 0 0 1-.647 2.88c-.347.215-.736.33-1.109.33-.69 0-1.37-.345-1.771-.98zm857.496 12.688a2.1 2.1 0 0 1-.562-2.895 2.105 2.105 0 0 1 2.91-.576 2.116 2.116 0 0 1 .563 2.91 2.118 2.118 0 0 1-1.743.907 2.16 2.16 0 0 1-1.168-.346zm-849.533-.533a2.099 2.099 0 0 1 .563-2.895c.949-.648 2.247-.387 2.893.562a2.083 2.083 0 0 1-1.714 3.256c-.675 0-1.339-.318-1.742-.923zm841.194 12.373a2.078 2.078 0 0 1-.475-2.896 2.097 2.097 0 0 1 2.924-.49c.923.677 1.137 1.988.475 2.91a2.09 2.09 0 0 1-1.698.878c-.432 0-.85-.13-1.226-.402zm-832.884-.448a2.1 2.1 0 0 1 .49-2.924 2.084 2.084 0 0 1 2.909.492 2.104 2.104 0 0 1-.476 2.907c-.374.26-.805.39-1.222.39-.65 0-1.284-.303-1.701-.865zm824.214 12.069c-.906-.706-1.093-2.015-.389-2.924a2.086 2.086 0 0 1 2.924-.401 2.074 2.074 0 0 1 .39 2.922 2.031 2.031 0 0 1-1.657.82c-.445 0-.893-.129-1.268-.417zm-815.559-.387a2.087 2.087 0 0 1 .39-2.926 2.072 2.072 0 0 1 2.923.39 2.074 2.074 0 0 1-.389 2.923c-.374.288-.82.432-1.266.432-.62 0-1.254-.287-1.658-.82zm8.987 11.419a2.085 2.085 0 0 1 .303-2.938 2.097 2.097 0 0 1 2.938.317c.72.893.592 2.203-.303 2.938-.389.302-.864.46-1.323.46a2.077 2.077 0 0 1-1.615-.777zm797.57.317c-.892-.72-1.02-2.045-.3-2.938.72-.893 2.03-1.023 2.938-.303a2.08 2.08 0 0 1 .302 2.924v.014c-.419.506-1.01.764-1.627.764-.462 0-.923-.143-1.312-.461zM196.66 830.94a2.096 2.096 0 0 1 .232-2.953 2.082 2.082 0 0 1 2.938.23 2.08 2.08 0 0 1-.232 2.939 2.02 2.02 0 0 1-1.354.504c-.59 0-1.166-.245-1.584-.72zm778.95.23a2.065 2.065 0 0 1-.217-2.938 2.08 2.08 0 0 1 2.938-.23c.864.749.965 2.074.232 2.938-.418.49-1.01.736-1.6.736-.476 0-.95-.173-1.353-.506zm-769.328 10.672a2.103 2.103 0 0 1 .143-2.95 2.092 2.092 0 0 1 2.952.142c.78.85.706 2.16-.144 2.938a2.04 2.04 0 0 1-1.396.547c-.577 0-1.137-.23-1.555-.677zm759.706.144a2.063 2.063 0 0 1-.144-2.938 2.077 2.077 0 0 1 2.94-.144c.848.765.92 2.089.142 2.938-.402.463-.98.692-1.54.692a1.99 1.99 0 0 1-1.398-.548zm-749.77 10.47c-.807-.82-.778-2.145.059-2.95a2.1 2.1 0 0 1 2.951.057v.013a2.072 2.072 0 0 1-.058 2.938 2.111 2.111 0 0 1-1.453.592 2.046 2.046 0 0 1-1.499-.65zm739.834.073a2.077 2.077 0 0 1-.057-2.953c.79-.835 2.115-.848 2.95-.057a2.09 2.09 0 0 1 .045 2.952 2.03 2.03 0 0 1-1.498.635c-.52 0-1.038-.187-1.44-.577zm-729.594 10.268a2.092 2.092 0 0 1-.029-2.952 2.092 2.092 0 0 1 2.954-.029c.82.82.82 2.131.029 2.954a2.108 2.108 0 0 1-1.498.632 2.042 2.042 0 0 1-1.456-.605zm719.367-.014a2.077 2.077 0 0 1 .016-2.951 2.064 2.064 0 0 1 2.953.027c.805.821.79 2.133-.03 2.938h.015c-.417.403-.95.605-1.47.605-.547 0-1.08-.214-1.484-.62zm-10.526 9.953c-.78-.85-.735-2.175.115-2.952a2.09 2.09 0 0 1 2.951.113c.778.836.735 2.16-.115 2.938a2.088 2.088 0 0 1-2.951-.1v.001zm-698.326.115a2.095 2.095 0 0 1-.102-2.954 2.075 2.075 0 0 1 2.938-.113v.013c.85.779.892 2.09.115 2.94a2.04 2.04 0 0 1-1.527.66 2.087 2.087 0 0 1-1.424-.546zm687.537 9.534a2.086 2.086 0 1 1 3.14-2.75 2.076 2.076 0 0 1-.187 2.938 2.122 2.122 0 0 1-1.383.517 2.08 2.08 0 0 1-1.57-.705zm-676.723.2a2.09 2.09 0 0 1-.201-2.937 2.11 2.11 0 0 1 2.953-.2c.865.761.95 2.086.186 2.95-.402.477-.98.708-1.568.708a2.05 2.05 0 0 1-1.37-.52zm665.664 9.132c-.734-.879-.605-2.204.272-2.939a2.093 2.093 0 0 1 2.938.276 2.08 2.08 0 0 1-.272 2.938c-.39.33-.85.488-1.325.488-.605 0-1.195-.26-1.613-.763zm-654.589.302a2.096 2.096 0 0 1-.273-2.938 2.095 2.095 0 0 1 2.938-.272 2.08 2.08 0 0 1 .273 2.938 2.053 2.053 0 0 1-1.597.762c-.476 0-.952-.157-1.34-.49zm643.282 8.729a2.076 2.076 0 0 1 .36-2.938 2.081 2.081 0 0 1 2.924.36 2.102 2.102 0 0 1-.36 2.938 2.153 2.153 0 0 1-1.28.432c-.621 0-1.24-.275-1.644-.792zm-631.933.402c-.907-.704-1.066-2.015-.36-2.938.72-.907 2.03-1.064 2.924-.36a2.088 2.088 0 0 1 .374 2.938 2.127 2.127 0 0 1-1.656.792c-.446 0-.893-.144-1.282-.432zm620.354 8.281a2.089 2.089 0 0 1 .448-2.91c.92-.69 2.23-.487 2.923.447a2.09 2.09 0 0 1-.448 2.91 2.09 2.09 0 0 1-1.237.403 2.09 2.09 0 0 1-1.686-.85zm-608.746.506a2.078 2.078 0 0 1-.446-2.911 2.087 2.087 0 0 1 3.372 2.463 2.113 2.113 0 0 1-1.702.865c-.417 0-.848-.145-1.224-.417zM878.77 917.8a2.066 2.066 0 0 1 .518-2.896 2.082 2.082 0 0 1 2.908.518 2.1 2.1 0 0 1-.533 2.91c-.36.246-.777.361-1.18.361-.663 0-1.31-.302-1.713-.893zm-585.099.603c-.949-.648-1.195-1.958-.531-2.893a2.085 2.085 0 1 1 3.428 2.375 2.09 2.09 0 0 1-1.714.893c-.405 0-.823-.115-1.183-.375zm573.057 7.418a2.074 2.074 0 0 1 .605-2.88 2.072 2.072 0 0 1 2.88.604c.636.966.36 2.261-.604 2.896-.346.23-.735.33-1.138.33-.677 0-1.34-.33-1.743-.95zm-560.974.705a2.073 2.073 0 0 1-.604-2.88 2.074 2.074 0 0 1 2.88-.605 2.072 2.072 0 0 1 .605 2.88c-.389.62-1.051.95-1.743.95-.389 0-.777-.114-1.138-.345zm548.718 6.987a2.085 2.085 0 0 1 .693-2.88c.98-.607 2.26-.289 2.865.69.604.978.288 2.275-.69 2.865-.347.216-.72.317-1.095.317-.693 0-1.384-.36-1.773-.992zm-536.404.792c-.978-.592-1.28-1.872-.691-2.868a2.082 2.082 0 0 1 2.866-.675c.994.59 1.296 1.87.691 2.864a2.094 2.094 0 0 1-1.771.994c-.375 0-.75-.1-1.095-.315zM842 940.844a2.084 2.084 0 0 1 .778-2.853 2.073 2.073 0 0 1 2.837.764 2.09 2.09 0 0 1-.762 2.851 2.108 2.108 0 0 1-2.853-.762zm-511.386.893a2.064 2.064 0 0 1-.778-2.838 2.083 2.083 0 0 1 2.852-.778 2.092 2.092 0 0 1 .762 2.851 2.05 2.05 0 0 1-2.836.765zm498.727 6.076c-.548-1.022-.173-2.288.85-2.822a2.079 2.079 0 0 1 2.822.85 2.076 2.076 0 0 1-.85 2.822 2.016 2.016 0 0 1-.979.245 2.067 2.067 0 0 1-1.843-1.095zm-485.997 1.01a2.103 2.103 0 0 1-.848-2.839c.547-1.006 1.813-1.397 2.822-.85a2.094 2.094 0 0 1 .863 2.823 2.118 2.118 0 0 1-1.843 1.11c-.332 0-.677-.087-.994-.244zm473.137 5.601a2.095 2.095 0 0 1 .92-2.808 2.091 2.091 0 0 1 2.809.936 2.081 2.081 0 0 1-.92 2.794c-.303.158-.621.23-.938.23-.763 0-1.51-.432-1.87-1.152zm-460.19 1.095a2.072 2.072 0 0 1-.936-2.793 2.09 2.09 0 0 1 2.81-.938 2.096 2.096 0 0 1 .92 2.809 2.086 2.086 0 0 1-1.856 1.152 2 2 0 0 1-.938-.23zm447.156 5.141a2.068 2.068 0 0 1 1.007-2.765v-.013a2.107 2.107 0 0 1 2.781 1.022 2.092 2.092 0 0 1-1.023 2.766c-.275.128-.577.2-.88.2a2.07 2.07 0 0 1-1.885-1.21zm-434.021 1.21a2.102 2.102 0 0 1-1.023-2.78 2.1 2.1 0 0 1 2.781-1.008 2.07 2.07 0 0 1 1.007 2.765 2.096 2.096 0 0 1-2.765 1.023zm420.815 4.666a2.087 2.087 0 1 1 3.83-1.656 2.071 2.071 0 0 1-1.095 2.736 2.044 2.044 0 0 1-.82.175 2.101 2.101 0 0 1-1.915-1.255zm-407.506 1.296a2.087 2.087 0 0 1-1.096-2.749 2.09 2.09 0 0 1 2.75-1.08 2.075 2.075 0 0 1 1.08 2.735 2.093 2.093 0 0 1-1.915 1.267c-.273 0-.561-.057-.82-.173zm394.14 4.191a2.082 2.082 0 0 1 1.166-2.707 2.075 2.075 0 0 1 2.707 1.168 2.074 2.074 0 0 1-1.93 2.85c-.835 0-1.613-.49-1.943-1.31zM396.2 973.422a2.1 2.1 0 0 1-1.165-2.71 2.102 2.102 0 0 1 2.72-1.18 2.091 2.091 0 0 1 1.154 2.722 2.086 2.086 0 0 1-1.931 1.31c-.258 0-.518-.043-.778-.142zm367.167 3.715a2.098 2.098 0 0 1 1.238-2.68 2.081 2.081 0 0 1 2.678 1.24c.405 1.08-.158 2.274-1.238 2.678a2.082 2.082 0 0 1-2.677-1.237zm-353.528 1.482a2.082 2.082 0 0 1-1.237-2.677 2.066 2.066 0 0 1 2.664-1.24 2.084 2.084 0 0 1 1.252 2.664 2.097 2.097 0 0 1-1.959 1.383c-.245 0-.488-.042-.72-.13zm339.888 3.24a2.066 2.066 0 0 1 1.31-2.635 2.066 2.066 0 0 1 2.636 1.31 2.086 2.086 0 0 1-1.31 2.65c-.215.074-.447.102-.663.102a2.067 2.067 0 0 1-1.973-1.426zm-326.105 1.57a2.085 2.085 0 1 1 1.31-3.96 2.082 2.082 0 0 1-.662 4.061 2 2 0 0 1-.648-.1zm312.28 2.782a2.104 2.104 0 0 1 1.396-2.608 2.097 2.097 0 0 1 2.608 1.398 2.102 2.102 0 0 1-1.397 2.605v-.013c-.203.07-.403.1-.606.1a2.11 2.11 0 0 1-2.002-1.482zm-298.425 1.626a2.087 2.087 0 0 1-1.396-2.607 2.088 2.088 0 0 1 2.605-1.397 2.107 2.107 0 0 1 1.397 2.608 2.09 2.09 0 0 1-2.002 1.482 2.2 2.2 0 0 1-.604-.086zm284.497 2.334a2.088 2.088 0 0 1 1.455-2.565 2.078 2.078 0 0 1 2.564 1.47c.302 1.108-.346 2.26-1.454 2.548v.015a2.497 2.497 0 0 1-.547.072c-.923 0-1.773-.62-2.018-1.54zm-270.513 1.67a2.08 2.08 0 0 1-1.47-2.564 2.068 2.068 0 0 1 2.566-1.453 2.072 2.072 0 0 1 1.469 2.547 2.102 2.102 0 0 1-2.018 1.543c-.187 0-.374-.014-.547-.072zm256.471 1.886a2.096 2.096 0 0 1 1.527-2.52h.016a2.07 2.07 0 0 1 2.504 1.542 2.066 2.066 0 0 1-1.526 2.52c-.159.028-.331.058-.488.058-.938 0-1.8-.65-2.033-1.6zm-242.384 1.728a2.085 2.085 0 0 1-1.543-2.52 2.087 2.087 0 0 1 2.52-1.541 2.086 2.086 0 0 1 1.543 2.52 2.107 2.107 0 0 1-2.032 1.6c-.157 0-.331-.03-.488-.059zm228.258 1.44a2.083 2.083 0 1 1 4.074-.878 2.082 2.082 0 0 1-1.597 2.477c-.16.03-.303.058-.448.058-.965 0-1.83-.677-2.03-1.656zm-214.074 1.772c-1.123-.245-1.856-1.352-1.611-2.477a2.106 2.106 0 0 1 2.475-1.613 2.106 2.106 0 0 1 1.613 2.477 2.101 2.101 0 0 1-2.477 1.613zm199.843.994c-.202-1.138.549-2.231 1.67-2.434a2.087 2.087 0 0 1 2.436 1.67 2.085 2.085 0 0 1-1.672 2.436c-.128.027-.258.027-.373.027a2.098 2.098 0 0 1-2.061-1.7zm-185.57 1.814a2.092 2.092 0 0 1-1.685-2.432c.203-1.125 1.296-1.874 2.433-1.67 1.125.2 1.873 1.294 1.673 2.417a2.099 2.099 0 0 1-2.061 1.716c-.116 0-.245 0-.36-.03zm171.283.548a2.099 2.099 0 0 1 1.743-2.391 2.085 2.085 0 0 1 2.376 1.743 2.073 2.073 0 0 1-1.743 2.376c-.1.03-.216.03-.315.03a2.09 2.09 0 0 1-2.061-1.758zm-156.952 1.858a2.081 2.081 0 0 1-1.743-2.375c.172-1.138 1.238-1.932 2.375-1.743a2.081 2.081 0 0 1 1.757 2.375 2.1 2.1 0 0 1-2.058 1.773c-.116 0-.216-.016-.331-.03zm142.608.1a2.082 2.082 0 0 1 1.8-2.333v-.013a2.1 2.1 0 0 1 2.333 1.814 2.088 2.088 0 0 1-1.815 2.333c-.085.014-.172.014-.257.014a2.07 2.07 0 0 1-2.061-1.815zm-128.193 1.903a2.082 2.082 0 0 1-1.813-2.333 2.079 2.079 0 0 1 2.332-1.8c1.137.128 1.944 1.18 1.8 2.317a2.07 2.07 0 0 1-2.06 1.829c-.086 0-.173 0-.259-.013zm113.776-.347a2.109 2.109 0 0 1 1.888-2.289 2.1 2.1 0 0 1 2.274 1.871 2.069 2.069 0 0 1-1.872 2.277v.013h-.2a2.103 2.103 0 0 1-2.09-1.872zm-99.33 1.944c-1.137-.115-1.988-1.138-1.873-2.275a2.075 2.075 0 0 1 2.276-1.873 2.088 2.088 0 0 1 1.886 2.276 2.105 2.105 0 0 1-2.088 1.887c-.058 0-.13-.015-.2-.015zm84.9-.792c-.073-1.152.793-2.16 1.944-2.232h-.013c1.15-.087 2.16.792 2.23 1.93a2.082 2.082 0 0 1-1.928 2.232h-.145c-1.095 0-2.015-.835-2.087-1.93zm-70.398 1.987c-1.15-.084-2.03-1.08-1.944-2.232a2.078 2.078 0 0 1 2.218-1.928 2.08 2.08 0 0 1 1.944 2.218 2.076 2.076 0 0 1-2.072 1.942h-.146zm58.114.75a2.07 2.07 0 0 1-2.175-1.988 2.07 2.07 0 0 1 1.988-2.175c1.15-.057 2.13.85 2.187 2.004a2.1 2.1 0 0 1-2 2.173v-.013zm-45.598-2.132a2.091 2.091 0 0 1 2.176-2c1.137.057 2.045 1.022 1.986 2.173a2.079 2.079 0 0 1-2.16 2.002c-1.153-.042-2.044-1.023-2.002-2.175zm28.963.49a2.089 2.089 0 0 1 2.059-2.118 2.1 2.1 0 0 1 2.117 2.06 2.091 2.091 0 0 1-2.06 2.119h-.029a2.084 2.084 0 0 1-2.087-2.061zm-12.429 2.073a2.098 2.098 0 0 1-2.06-2.115 2.09 2.09 0 0 1 2.118-2.061 2.091 2.091 0 0 1 2.06 2.117 2.094 2.094 0 0 1-2.09 2.06h-.028zM858.52 80.94c-.13 0-.273-.014-.403-.043a1.221 1.221 0 0 1-.39-.115 2.656 2.656 0 0 1-.36-.187 3.061 3.061 0 0 1-.317-.26c-.1-.1-.186-.2-.258-.316-.087-.115-.145-.245-.203-.36-.041-.128-.085-.26-.115-.403a1.913 1.913 0 0 1 0-.805c.03-.132.074-.261.115-.39a2.83 2.83 0 0 1 .188-.36c.087-.116.172-.231.26-.318.778-.777 2.188-.777 2.966 0 .087.087.172.202.259.317.073.115.13.23.189.36.041.13.085.26.115.39a1.993 1.993 0 0 1 0 .806c-.03.144-.074.275-.115.403-.058.115-.116.245-.204.36a1.775 1.775 0 0 1-.257.317 3.222 3.222 0 0 1-.317.259c-.102.073-.23.13-.36.187-.115.058-.245.101-.39.115a1.91 1.91 0 0 1-.404.044"></path><path fill="#000" d="m1065.934 639.757 17.604-17.705 6.535 24.095z"></path><mask id="wyohtlwhjb" fill="#fff"><use xlink:href="#rsdxpq7lya"></use></mask><path fill="#FFF" mask="url(#wyohtlwhjb)" d="M0 548.028h266.438V428.49H0z"></path><path fill="#FFF" mask="url(#wyohtlwhjb)" d="M266.438 660.364H159.863v-347.09l106.575 4.321z"></path><path d="M746.577 471.557c-15.425-73.549-80.76-128.96-158.827-128.96-89.49 0-162.297 72.809-162.297 162.302 0 89.494 72.807 162.3 162.297 162.3 78.066 0 143.402-55.41 158.827-128.957h254.58C993.398 636.448 951.418 727.732 881 798.15c-161.703 161.71-424.813 161.69-586.5.003-161.696-161.7-161.696-424.808 0-586.504C438.087 68.06 661.565 52.089 823.065 163.506a102.867 102.867 0 0 1 41.16-52.587C676.507-20.94 415.004-3.165 247.34 164.493c-187.693 187.7-187.693 493.11 0 680.81 93.854 93.856 217.128 140.78 340.41 140.78 123.28 0 246.554-46.924 340.408-140.78 90.927-90.922 140.999-211.814 140.999-340.404v-33.342h-322.58z" fill="#000" mask="url(#wyohtlwhjb)"></path><path d="M762.128 504.937c0 96.245-78.021 174.265-174.264 174.265-96.245 0-174.265-78.02-174.265-174.265 0-96.243 78.02-174.264 174.265-174.264 96.243 0 174.264 78.021 174.264 174.264" fill="#000" mask="url(#wyohtlwhjb)"></path><path d="M532.943 512.841c.385-.054.438-.138.438-.547v-7.523h-10.178v7.497c0 .435.027.491.438.545l1.832.22v1.204h-6.264v-1.204l1.723-.192c.384-.054.439-.138.439-.547V496.37c0-.41-.055-.491-.44-.546l-1.722-.192v-1.204h6.264v1.204l-1.832.22c-.41.053-.438.109-.438.518v6.868h10.178v-6.868c0-.41-.053-.491-.438-.546l-1.722-.192v-1.204h6.263v1.204l-1.832.22c-.41.053-.438.109-.438.518v15.898c0 .435.028.491.438.545l1.832.22v1.204h-6.263v-1.204l1.722-.192zM557.598 504.168c0-5.473-2.764-8.481-7.087-8.481-4.377 0-7.468 3.037-7.468 8.618 0 5.608 2.872 8.647 7.25 8.647 4.35 0 7.305-2.9 7.305-8.784m-16.472.137c0-5.91 3.284-10.233 9.44-10.233 6.102 0 8.92 4.322 8.92 9.822 0 6.458-3.147 10.672-9.302 10.672-6.238 0-9.058-4.323-9.058-10.261M572.921 496.344c-.191-.248-1.313-.602-2.955-.602-3.145 0-4.65 1.34-4.65 3.502 0 5.527 10.205 2.325 10.205 9.74 0 4.131-3.256 5.581-7.06 5.581-2.517 0-4.787-.629-5.553-1.012v-4.132h1.34l.52 2.326c.083.354.11.465.466.602.437.164 1.667.575 3.473.575 3.04 0 4.871-1.15 4.871-3.804 0-5.853-10.205-2.489-10.205-9.685 0-3.803 3.01-5.362 6.703-5.362 2.272 0 4.05.602 4.87.903v4.378l-1.395-.138-.438-2.352c-.055-.248-.11-.41-.192-.52M592.157 500.31c0-2.981-1.588-4.295-5.226-4.295h-3.612v9.056h3.201c3.147 0 5.637-.684 5.637-4.76zm-11.08 12.531c.383-.054.437-.138.437-.547v-15.897c0-.409-.054-.493-.438-.546l-1.723-.191v-1.232h8.125c5.062 0 6.593 2.68 6.593 5.829 0 4.678-2.871 6.429-7.496 6.429h-3.256v5.582c0 .435.029.519.44.546l3.91.219v1.204h-8.316v-1.204l1.723-.192zM599.655 512.841c.385-.028.44-.138.44-.547V496.37c0-.41-.055-.519-.44-.546l-1.997-.192v-1.204h6.813v1.204l-2.107.22c-.41.053-.438.109-.438.518v15.898c0 .435.028.491.438.545l2.107.22v1.204h-6.813v-1.204l1.997-.192zM614.02 512.813c.385-.027.44-.136.44-.545v-16.306h-4.79c-.3 0-.382.025-.437.3l-.437 2.38h-1.369v-4.214h15.925v4.214h-1.37l-.436-2.38c-.055-.275-.137-.3-.438-.3h-4.816v16.306c0 .383.027.492.438.518l3.01.219v1.231h-8.536v-1.231l2.817-.192zM635.092 506.248l-3.45-10.315-3.473 10.315h6.923zm2.19 6.539-1.672-4.925h-7.988l-1.64 4.925 2.214.246v1.204h-5.663v-1.204l1.177-.301c.327-.082.547-.192.657-.52l6.046-17.784h2.517l6.183 17.84c.11.327.301.382.63.464l1.258.3v1.205h-5.993v-1.204l2.273-.246zM645.189 512.841c.385-.054.44-.138.44-.547v-15.897c0-.409-.055-.492-.44-.546l-1.722-.191v-1.232h6.702v1.232l-2.271.219c-.41.026-.438.135-.438.518v16.306h7.772c.3 0 .381-.026.436-.3l.438-2.38h1.368v4.214h-14.007v-1.204l1.722-.192z" fill="#FFF" mask="url(#wyohtlwhjb)"></path><path d="M478.928 434.581c.15-.357.107-.448-.243-.658l-6.458-3.869-5.23 8.735 6.434 3.854c.375.225.438.23.694-.096l1.13-1.46 1.032.619-3.217 5.376-1.034-.616.721-1.582c.15-.354.108-.443-.243-.655l-13.666-8.182c-.353-.209-.451-.206-.696.095l-1.048 1.381-1.035-.619 3.22-5.378 1.033.623-.753 1.683c-.165.38-.13.43.22.642l5.894 3.53 5.23-8.736-5.894-3.528c-.352-.21-.45-.205-.696.096l-1.048 1.378-1.033-.616 3.219-5.378 1.031.618-.752 1.685c-.164.383-.132.434.222.645l13.64 8.168c.376.226.437.229.695-.095l1.13-1.46 1.034.619-3.222 5.374-1.03-.617.72-1.576zM487.148 409.961c-4.17-3.544-8.251-3.389-11.051-.093-2.834 3.335-2.522 7.659 1.731 11.273 4.275 3.631 8.45 3.41 11.283.072 2.817-3.315 2.52-7.444-1.963-11.252m-10.56 12.64c-4.503-3.826-5.673-9.129-1.686-13.82 3.95-4.65 9.07-3.997 13.26-.439 4.92 4.183 6.096 9.308 2.11 14-4.04 4.753-9.157 4.104-13.684.258M493.748 393.158c-.305-.056-1.381.422-2.61 1.511-2.354 2.088-2.59 4.09-1.156 5.709 3.667 4.133 9.18-5.032 14.1.516 2.742 3.09 1.267 6.337-1.579 8.858-1.884 1.674-4 2.708-4.826 2.931l-2.745-3.092 1.005-.891 1.931 1.398c.299.21.39.272.75.14.436-.167 1.628-.677 2.98-1.875 2.272-2.018 2.882-4.094 1.121-6.078-3.886-4.383-9.29 4.91-14.062-.477-2.525-2.844-1.308-6.008 1.456-8.46 1.698-1.506 3.428-2.236 4.244-2.556l2.902 3.275-1.135.824-1.886-1.47c-.206-.147-.355-.234-.49-.263M512.886 384.075c-1.677-2.47-3.728-2.664-6.74-.622l-2.986 2.03 5.085 7.494 2.649-1.799c2.605-1.767 4.282-3.73 1.992-7.103zm-2.135 16.592c.287-.261.285-.36.056-.699l-8.927-13.156c-.23-.34-.32-.376-.669-.208l-1.535.81-.69-1.018 6.725-4.563c4.188-2.842 6.963-1.485 8.729 1.12 2.627 3.873 1.232 6.934-2.596 9.53l-2.693 1.828 3.134 4.619c.246.361.315.414.67.208l3.36-2.016.678.995-6.886 4.672-.675-.998 1.32-1.124zM526.177 390.978c.325-.206.32-.328.13-.691l-7.437-14.088c-.193-.363-.292-.434-.645-.28l-1.856.764-.56-1.063 6.025-3.184.562 1.065-1.763 1.177c-.335.242-.334.304-.14.667l7.423 14.062c.205.389.257.423.643.28l1.967-.79.562 1.063-6.026 3.184-.565-1.064 1.68-1.102zM538.844 384.953c.348-.167.358-.29.206-.67l-6.002-15.166-4.455 1.764c-.28.11-.344.165-.294.438l.468 2.377-1.271.503-1.553-3.919 14.811-5.861 1.55 3.918-1.272.503-1.282-2.052c-.152-.234-.239-.23-.52-.118l-4.479 1.773 6.005 15.165c.14.356.206.446.597.324l2.88-.907.454 1.146-7.94 3.143-.453-1.145 2.55-1.216zM556.854 372.323l-5.92-9.124-.784 10.857 6.704-1.733zm3.755 5.785-2.848-4.352-7.736 2.002-.356 5.178 2.206-.317.303 1.166-5.485 1.419-.302-1.168 1.064-.585c.298-.161.483-.322.507-.667l1.403-18.734 2.438-.63 10.452 15.726c.188.291.389.297.726.293l1.293-.025.301 1.165-5.803 1.501-.3-1.166 2.137-.806zM568.016 376.84c.376-.097.42-.185.373-.593l-1.827-15.797c-.046-.408-.11-.484-.496-.494l-1.737.007-.14-1.223 6.662-.769.142 1.223-2.231.48c-.406.073-.42.185-.378.565l1.874 16.206 7.722-.893c.299-.033.378-.07.4-.349l.162-2.417 1.358-.157.487 4.189-13.922 1.61-.14-1.197 1.69-.39zM593.079 374.83c-.035.436-.013.492.391.578l1.81.368-.096 1.2-6.244-.506.093-1.198 1.736-.054c.386-.023.446-.102.48-.51l1.28-15.87c.034-.408-.015-.495-.39-.58l-1.705-.328.098-1.23 4.8.389 8.754 18.051 1.232-15.27c.033-.408-.015-.494-.39-.579l-1.705-.331.097-1.2 6.217.501-.098 1.201-1.843.071c-.412.022-.445.073-.477.484l-1.439 17.805-2.29-.186-9.066-18.241-1.245 15.434zM613.05 377.763c.386.036.457-.03.552-.43l3.69-15.468c.096-.4.06-.493-.3-.634l-1.632-.586.287-1.2 13.044 3.111-.952 3.995-1.338-.403.122-2.165c.01-.279-.076-.386-.368-.455l-6.978-1.663-1.74 7.294 7.456 1.78-.354 1.488-7.456-1.777-1.79 7.506 7.56 1.805c.292.07.378.062.495-.192l.979-2.215 1.332.317-.98 4.1-13.63-3.249.28-1.172 1.721.213zM632.906 383.445c.37.108.458.03.605-.357l5.838-15.224-4.472-1.716c-.28-.106-.369-.112-.516.124l-1.26 2.068-1.278-.492 1.507-3.933 14.869 5.699-1.507 3.936-1.279-.49.444-2.38c.047-.276-.019-.33-.301-.439l-4.497-1.723-5.838 15.227c-.135.358-.15.47.225.642l2.732 1.28-.441 1.151-7.972-3.054.441-1.151 2.7.832zM649.667 392.627l-1.835-1.09 5.051-17.707c.112-.348.073-.498-.205-.728l-1.319-1.098.85-.897 5.39 3.193-.616 1.037-2.281-1.034-4.743 15.953 10.335-9.556 1.813 1.075-3.578 13.876 11.923-12.017-2.05-1.534.849-.896 5.154 3.054-.613 1.035-1.399-.54c-.355-.148-.468-.118-.77.177l-13.057 12.968-2-1.186 3.485-13.612-10.384 9.527zM683.702 405.124c3.573-4.142 3.45-8.225.178-11.049-3.314-2.86-7.637-2.582-11.285 1.643-3.664 4.243-3.475 8.418-.161 11.279 3.292 2.843 7.422 2.58 11.268-1.873m-12.556-10.657c3.861-4.473 9.17-5.6 13.83-1.577 4.618 3.986 3.923 9.098.332 13.261-4.219 4.885-9.355 6.019-14.012 1.996-4.721-4.075-4.028-9.188-.15-13.68M699.514 416.092c2.332-1.99 1.523-3.991-.892-6.824l-1.582-1.853-6.1 5.2 1.951 2.29c1.865 2.188 4.063 3.373 6.623 1.187zm-10.036 8.307c.764-1.551 2.115-4.14 2.946-5.823.372-.746.323-1.35-.316-2.101l-2.398-2.813-5.04 4.298c-.33.283-.355.34-.13.688l1.04 1.558-.918.783-4.066-4.77.917-.782 1.265 1.19c.29.255.387.244.7-.024l12.099-10.316c.313-.267.338-.362.131-.687l-.97-1.436.935-.8 5.187 6.081c3.194 3.746 1.834 6.452-.082 8.087-2.27 1.936-4.589 1.792-6.585.546.252.97-.363 1.892-1.102 3.347l-2.043 3.972a.8.8 0 0 0 .051.818l.96 1.593-.915.782-4.227-4.957.936-.798 1.625 1.564zM700.457 440.567l3.656-10.056-3.305-.648-4.62 2.883c-.373.23-.403.286-.233.662l.788 1.67-1.023.64-3.318-5.318 1.02-.638 1.077 1.361c.247.296.347.299.695.082l13.512-8.432c.347-.217.388-.307.234-.661l-.754-1.564 1.023-.64 3.318 5.318-1.022.638-1.157-1.44c-.262-.322-.322-.316-.672-.096l-6.965 4.346 11.658 2.242-.714-1.555 1.045-.653 3.045 4.874-1.023.64-1.013-1.11c-.333-.374-.445-.399-.808-.463l-9.02-1.792-4.044 11.043c-.15.382-.144.444.047.903l.64 1.539-1.023.638-3.462-5.55 1.045-.652 1.373 1.789z" fill="gray" mask="url(#wyohtlwhjb)"></path><path d="m231.372 652.924.179 1.322-1.285.194-2.224-5.654 1.18-.464 1.115 2.13 14.338-11.857-18.52 1.216.613 2.267-1.285.196-2.077-5.283 1.18-.464.737 1.01c.208.294.41.49.774.47l19.633-1.218.97 2.464-15.126 12.847c-.28.236-.25.47-.202.824M231.26 621.369l-9.115 6.93 11.46-.027-2.345-6.903zm5.778-4.397-4.345 3.334 2.706 7.963 5.465-.03-.505-2.293 1.2-.408 1.918 5.641-1.2.41-.698-1.07c-.195-.3-.378-.48-.742-.479l-19.774-.004-.854-2.51 15.69-12.205c.29-.22.279-.43.25-.785l-.125-1.356 1.2-.408 2.029 5.976-1.2.407-1.015-2.183zM234.693 609.178c-.164-.375-.265-.405-.68-.287l-16.096 4.557c-.416.118-.482.194-.429.599l.3 1.8-1.246.352-1.923-6.785 1.249-.354.871 2.236c.147.408.265.405.653.295l16.512-4.674-2.227-7.868c-.086-.304-.138-.38-.432-.357l-2.533.239-.395-1.384 4.269-1.21 4.014 14.189-1.219.342-.688-1.69zM229.947 591.572c-.123-.39-.249-.416-.668-.316l-16.296 3.925c-.42.1-.52.186-.452.585l.297 2.09-1.233.298-1.68-6.973 1.232-.296.743 2.101c.157.41.22.422.64.321l16.268-3.919c.45-.109.498-.148.452-.584l-.293-2.208 1.231-.298 1.68 6.973-1.232.295-.689-1.994zM215.922 567.991c-6.759 1.308-8.097 4.852-7.096 10.028l.75 3.873 17.165-3.321-.716-3.706c-1.08-5.569-4.73-7.915-10.103-6.874zm11.499 12.883c-.133-.385-.23-.428-.654-.343l-16.427 3.179c-.425.082-.5.154-.478.563l.147 1.819-1.272.244-1.583-8.171c-1.374-7.096 1.852-10.891 7.962-12.072 6.276-1.216 11.186 1.266 12.603 8.59l1.49 7.693-1.245.239-.543-1.741zM215.434 551.539l-10.261 5.076 11.256 2.142-.995-7.218zm6.504-3.224-4.895 2.447 1.15 8.332 5.371 1.004-.062-2.346 1.256-.175.814 5.908-1.256.171-.482-1.18c-.134-.333-.28-.546-.637-.611l-19.417-3.748-.363-2.624 17.713-9.018c.327-.16.357-.367.395-.72l.134-1.356 1.256-.174.86 6.248-1.255.174-.582-2.332zM220.94 538.481c-.066-.399-.187-.446-.614-.406l-17.093 1.563.458 5.017c.029.316.066.4.357.43l2.538.231.131 1.432-4.416.405-1.525-16.691 4.416-.403.131 1.433-2.453.688c-.28.085-.304.172-.272.487l.46 5.05 17.092-1.563c.4-.038.513-.075.501-.509l-.058-3.175 1.29-.118.817 8.948-1.29.118-.47-2.937zM219.842 523.525c-.049-.4-.167-.452-.599-.43l-16.748.86c-.432.022-.545.084-.552.49l-.093 2.11-1.266.066-.368-7.163 1.265-.067.344 2.205c.08.43.14.456.572.432l16.718-.86c.46-.022.517-.054.553-.489l.115-2.227 1.266-.064.367 7.163-1.264.065-.31-2.091zM210.194 497.396c-5.764-.04-8.952 2.85-8.983 7.404-.031 4.61 3.146 7.886 9.023 7.927 5.908.039 9.125-2.966 9.158-7.576.03-4.582-3.004-7.713-9.198-7.755m.029 17.347c-6.226-.042-10.754-3.53-10.711-10.014.042-6.424 4.614-9.362 10.407-9.325 6.799.046 11.215 3.39 11.17 9.874-.045 6.567-4.614 9.505-10.866 9.465M218.922 487.528c.461.026.52 0 .602-.429l.334-1.914 1.265.07-.362 6.584-1.263-.07-.102-1.821c-.034-.408-.12-.47-.552-.493l-16.738-.917c-.432-.025-.52.029-.6.428l-.301 1.801-1.293-.072.278-5.06 18.763-9.702-16.106-.883c-.432-.024-.52.028-.6.428l-.302 1.802-1.264-.07.358-6.558 1.266.07.125 1.94c.034.434.09.466.52.49l18.78 1.028-.132 2.417-18.954 10.038 16.278.893zM221.78 459.2c.022-.404-.088-.474-.515-.526l-16.648-2.006c-.427-.052-.55-.01-.626.388l-.451 2.064-1.259-.151.859-7.122 1.258.151-.037 2.231c.006.437.059.47.488.523l16.617 2.002c.458.055.519.032.628-.389l.494-2.176 1.259.153-.86 7.121-1.257-.15.05-2.114zM222.926 445.873c.453.077.515.058.644-.358l.549-1.865 1.25.211-1.096 6.501-1.251-.208.103-1.824c.01-.407-.065-.48-.492-.55l-16.525-2.788c-.427-.07-.52-.029-.644.36l-.501 1.754-1.278-.214.844-5 19.725-7.536-15.898-2.68c-.426-.074-.521-.032-.645.357l-.5 1.754-1.25-.209 1.092-6.475 1.25.21-.095 1.943c-.015.434.038.473.463.543l18.542 3.128-.404 2.385-19.952 7.848 16.07 2.713zM212.246 413.119c-.297.14-.923 1.21-1.3 2.896-.73 3.23.299 5.087 2.52 5.588 5.676 1.276 4.75-9.945 12.364-8.228 4.244.956 4.98 4.633 4.099 8.54-.582 2.586-1.753 4.773-2.325 5.47l-4.243-.956.31-1.375 2.51.003c.383 0 .502-.006.725-.337.27-.412.976-1.582 1.394-3.438.703-3.12-.053-5.267-2.78-5.882-6.014-1.352-4.918 9.907-12.308 8.242-3.907-.881-4.811-4.332-3.957-8.125.525-2.334 1.556-4.021 2.055-4.795l4.496 1.013-.464 1.402-2.519-.095c-.263-.001-.445.018-.577.077M231.322 408.427c.076-.396-.022-.481-.44-.592l-16.206-4.3c-.418-.112-.545-.084-.674.299l-.735 1.98-1.225-.325 1.84-6.934 1.224.325-.345 2.202c-.057.433-.008.475.412.587l16.177 4.293c.445.119.509.104.674-.298l.792-2.087 1.228.326-1.842 6.935-1.225-.327.345-2.084zM232.734 381.516l6.678 2.095c.252 1.799-.267 4.505-.956 6.703-2.32 7.394-7.632 8.838-13.652 6.95-5.798-1.82-9.132-6.399-7.089-12.913.775-2.472 2.067-4.574 3.36-5.618l4.013 1.26-.522 1.376-2.729-.343c-.23-.042-.403-.066-.608.203-.711.922-1.482 2.312-1.937 3.77-1.456 4.645.644 8.624 6.143 10.348 5.745 1.802 9.779-.374 11.434-5.65.421-1.348.754-3.174.79-4.251.006-.21-.027-.4-.354-.504l-5.362-1.682-1.257 4.014-1.426-.748 2.24-7.148 1.238.388-.252 1.188c-.076.34-.027.474.248.562M245.368 365.5c.089-.397.03-.482-.375-.635l-7.4-2.825-3.822 10.01 7.373 2.813c.43.166.495.159.702-.224l.905-1.72 1.184.452-2.354 6.161-1.183-.452.458-1.767c.092-.397.031-.482-.373-.635l-15.663-5.981c-.403-.154-.504-.13-.701.226l-.837 1.623-1.182-.454 2.353-6.16 1.184.451-.474 1.886c-.1.424-.056.47.347.625l6.755 2.579 3.823-10.01-6.756-2.579c-.403-.154-.504-.13-.702.226l-.836 1.622-1.183-.45 2.351-6.163 1.186.452-.473 1.885c-.1.425-.057.472.346.625l15.635 5.971c.43.163.494.157.701-.225l.905-1.722 1.183.454-2.351 6.16-1.184-.45.458-1.769zM251.036 352.017c.138-.38.056-.478-.337-.655l-15.667-7.019-2.06 4.599c-.13.29-.139.38.1.552l2.097 1.444-.588 1.315-4.047-1.815 6.853-15.296 4.048 1.812-.587 1.313-2.477-.602c-.286-.065-.349.002-.479.29l-2.07 4.627 15.665 7.018c.368.166.485.186.688-.196l1.506-2.798 1.18.53-3.673 8.202-1.182-.531 1.03-2.79zM245.42 323.652c-.324.064-1.19.947-1.972 2.49-1.495 2.956-.952 5.007 1.079 6.036 5.192 2.63 7.038-8.482 14.003-4.956 3.881 1.966 3.695 5.713 1.885 9.288-1.197 2.362-2.867 4.197-3.592 4.734l-3.88-1.963.638-1.259 2.43.615c.374.092.49.12.786-.15.363-.334 1.335-1.295 2.194-2.99 1.444-2.853 1.235-5.123-1.256-6.386-5.5-2.783-7.192 8.405-13.953 4.982-3.572-1.809-3.606-5.376-1.849-8.847 1.08-2.134 2.492-3.519 3.164-4.145l4.113 2.081-.793 1.246-2.418-.707c-.257-.067-.437-.094-.58-.07M81.602 523.764c-.05-.4-.168-.452-.6-.432l-15.449.788 12.614 5.847.092 1.783-12.127 7.106 15.592-.794c.46-.023.544-.056.552-.49l.102-2.514 1.266-.063.364 7.162-1.266.063-.294-1.802c-.077-.398-.167-.452-.599-.43l-16.712.851c-.43.022-.515.084-.55.49l-.112 1.822-1.292.067-.24-4.72 13.369-7.6-14.083-6.38-.23-4.545 1.266-.064.327 1.916c.08.43.14.456.57.432l16.742-.852c.373-.017.484-.111.523-.488l.133-1.939 1.266-.063.364 7.162-1.264.063-.324-2.376zM72.14 497.97c-5.76.013-8.92 2.93-8.91 7.479.008 4.61 3.213 7.856 9.089 7.843 5.905-.013 9.093-3.045 9.085-7.653-.012-4.579-3.07-7.682-9.264-7.67m.183 17.34c-6.22.014-10.78-3.434-10.794-9.914-.015-6.423 4.53-9.398 10.319-9.411 6.798-.016 11.242 3.286 11.254 9.767.015 6.567-4.528 9.543-10.779 9.557M73.242 475.226c-6.877-.292-9.002 2.844-9.228 8.111l-.167 3.944 17.467.748.163-3.771c.243-5.67-2.767-8.797-8.235-9.032zm8.2 15.203c-.04-.408-.125-.468-.556-.487l-16.72-.716c-.433-.018-.522.035-.597.434l-.278 1.806-1.295-.056.355-8.318c.31-7.224 4.329-10.166 10.546-9.898 6.39.272 10.59 3.827 10.272 11.281l-.337 7.829-1.267-.056-.123-1.82zM82.589 468.04c-.025-.406-.104-.47-.536-.507l-16.683-1.38c-.43-.037-.52.012-.612.411l-.35 1.793-1.292-.106 1.163-14.073 4.308.36-.206 1.455-2.272.218c-.293.034-.39.14-.415.458l-.624 7.52 7.868.653.667-8.04 1.607.133-.665 8.04 8.097.672.675-8.155c.026-.316.006-.404-.278-.486l-2.461-.666.12-1.437 4.424.367-1.22 14.702-1.263-.104-.052-1.828zM84.267 449.585c-.012-.408-.09-.474-.517-.526l-16.622-1.977c-.427-.05-.521-.003-.626.39l-.415 1.779-1.287-.156.833-7.006 1.288.152-.053 2.403c-.023.432.088.474.49.523l17.048 2.027.965-8.124c.04-.315.02-.405-.259-.495l-2.435-.754.171-1.431 4.404.524-1.74 14.647-1.261-.15.016-1.826z" fill="#000" mask="url(#wyohtlwhjb)"></path><path d="M920.046 313.993c-64.562 0-117.089-52.527-117.089-117.088 0-64.562 52.527-117.087 117.089-117.087 64.561 0 117.087 52.525 117.087 117.087 0 64.561-52.526 117.088-117.087 117.088" fill="#23DE9A" mask="url(#wyohtlwhjb)"></path><path d="M887.619 190.236c.383-.03.436-.139.436-.549v-14.692l-6.155 11.682h-1.695l-6.159-11.844v14.828c0 .436.029.519.44.546l2.379.22v1.204h-6.812v-1.204l1.723-.191c.384-.056.44-.139.44-.549v-15.896c0-.41-.056-.492-.44-.547l-1.723-.191v-1.23h4.486l6.569 13.048 6.727-13.048h4.323v1.204l-1.833.217c-.408.055-.437.11-.437.519v15.924c0 .356.083.465.437.52l1.833.22v1.204h-6.812v-1.204l2.273-.191zM912.27 181.562c0-5.473-2.762-8.483-7.085-8.483-4.377 0-7.467 3.04-7.467 8.62 0 5.608 2.871 8.646 7.248 8.646 4.351 0 7.305-2.901 7.305-8.783m-16.47.137c0-5.91 3.283-10.234 9.437-10.234 6.102 0 8.92 4.323 8.92 9.824 0 6.456-3.144 10.67-9.301 10.67-6.24 0-9.056-4.322-9.056-10.26M933.671 181.836c0-6.54-3.066-8.428-8.072-8.428h-3.747v16.609h3.583c5.39 0 8.236-2.983 8.236-8.18zm-14.092 8.4c.385-.056.44-.139.44-.549v-15.896c0-.41-.055-.492-.44-.547l-1.721-.191v-1.23h7.907c6.865 0 9.819 3.692 9.819 9.603 0 6.073-3.202 10.205-10.286 10.205h-7.44v-1.204l1.721-.191zM941.005 190.236c.386-.056.439-.139.439-.549v-15.896c0-.41-.053-.492-.44-.547l-1.72-.191v-1.23h13.405v4.103l-1.394-.082-.386-2.135c-.053-.273-.163-.355-.464-.355h-7.168v7.496h7.66v1.532h-7.66v7.715h7.77c.301 0 .382-.027.438-.3l.436-2.38h1.37v4.214h-14.007v-1.204l1.72-.191zM958.709 190.236c.383-.056.44-.139.44-.549v-15.896c0-.41-.057-.492-.44-.547l-1.724-.191v-1.23h6.703v1.23l-2.27.219c-.41.027-.44.136-.44.52v16.305h7.774c.3 0 .381-.027.435-.3l.439-2.38h1.367v4.214h-14.008v-1.204l1.724-.191zM884.308 214.399c0-5.472-2.765-8.482-7.089-8.482-4.377 0-7.467 3.038-7.467 8.62 0 5.608 2.871 8.644 7.251 8.644 4.348 0 7.305-2.9 7.305-8.782m-16.473.138c0-5.91 3.283-10.234 9.44-10.234 6.102 0 8.92 4.323 8.92 9.823 0 6.455-3.147 10.67-9.301 10.67-6.24 0-9.06-4.323-9.06-10.26M896.758 224.467h-2.135l-4.677-17.81c-.082-.356-.192-.466-.546-.52l-1.697-.274.272-1.204h6.265v1.204l-2.49.273 4.051 16.142 4.02-13.489h2.107l3.994 13.764 4.132-16.417-2.542-.273.272-1.204h5.991v1.204l-1.476.246c-.383.055-.467.137-.576.547l-4.622 17.811h-2.327l-3.94-13.489-4.076 13.49zM920.237 222.497c0 .44.026.492.436.549l1.834.217v1.204h-6.264v-1.204l1.721-.192c.385-.054.44-.135.44-.545V206.6c0-.41-.055-.492-.44-.547l-1.72-.192v-1.23h4.811l10.18 17.292V206.6c0-.41-.055-.492-.438-.547l-1.724-.192v-1.204h6.239v1.204l-1.835.22c-.41.056-.435.109-.435.52v17.865h-2.299l-10.506-17.455v15.485zM940.895 223.072c.386-.055.44-.137.44-.547v-15.896c0-.41-.054-.492-.44-.548l-1.721-.192v-1.23h13.405v4.103l-1.394-.082-.386-2.134c-.053-.274-.163-.356-.464-.356h-7.167v7.496h7.659v1.534h-7.66v7.715h7.77c.301 0 .382-.027.438-.3l.437-2.381h1.37v4.214h-14.008v-1.204l1.72-.192zM969.052 209.994c0-3.064-2.054-3.75-5.772-3.75h-2.436v8.018h3.01c2.872 0 5.198-.903 5.198-4.268zm-.192 13.023c-.682-1.587-1.777-4.294-2.517-6.02-.328-.764-.82-1.122-1.806-1.122h-3.693v6.622c0 .438.028.492.438.55l1.86.217v1.204h-6.264v-1.204l1.721-.192c.386-.055.44-.137.44-.547v-15.896c0-.41-.054-.492-.44-.548l-1.721-.192v-1.23h7.989c4.925 0 6.1 2.79 6.1 5.307 0 2.983-1.614 4.652-3.86 5.364.904.437 1.205 1.505 1.836 3.01l1.696 4.13c.11.246.301.438.658.493l1.83.3v1.205h-6.51v-1.232l2.243-.219z" fill="#FFF" mask="url(#wyohtlwhjb)"></path><path d="M1027.174 625.221c-64.562 0-117.088-52.527-117.088-117.087 0-64.562 52.526-117.089 117.088-117.089 64.561 0 117.088 52.527 117.088 117.089 0 64.56-52.527 117.087-117.088 117.087" fill="#4D4D4D" mask="url(#wyohtlwhjb)"></path><path d="m940.1 462.38-1.231-.3.274-1.204h5.772v1.204l-2.27.246 5.499 16.799 5.363-16.799-2.216-.246.273-1.204h5.39v1.204l-1.15.3c-.328.083-.574.192-.684.52l-5.746 17.784h-2.516l-6.101-17.838c-.11-.328-.328-.383-.657-.465M967.872 472.696l-3.45-10.315-3.473 10.315h6.923zm2.19 6.538-1.671-4.924h-7.99l-1.64 4.924 2.215.247v1.204h-5.663v-1.204l1.177-.301c.327-.083.547-.192.657-.519l6.046-17.785h2.517l6.183 17.84c.11.327.301.381.63.464l1.258.3v1.205h-5.992v-1.204l2.272-.247zM977.97 479.29c.385-.055.44-.138.44-.548v-15.896c0-.41-.055-.492-.44-.547l-1.722-.191v-1.232h6.703v1.232l-2.272.219c-.41.027-.437.135-.437.52v16.305h7.77c.302 0 .383-.027.437-.3l.438-2.381h1.368v4.214h-14.007v-1.204l1.722-.192zM995.427 479.29c.385-.028.44-.138.44-.548v-15.924c0-.41-.055-.519-.44-.546l-1.997-.192v-1.204h6.813v1.204l-2.107.22c-.41.054-.438.109-.438.518v15.898c0 .436.028.491.438.546l2.107.219v1.204h-6.813v-1.204l1.997-.192zM1020.08 470.89c0-6.539-3.064-8.428-8.07-8.428h-3.749v16.61h3.583c5.391 0 8.237-2.984 8.237-8.182zm-14.09 8.4c.383-.056.44-.138.44-.548v-15.896c0-.41-.057-.492-.44-.547l-1.723-.192v-1.23h7.907c6.866 0 9.82 3.692 9.82 9.602 0 6.075-3.2 10.206-10.285 10.206h-7.442v-1.204l1.723-.192zM1035.377 472.696l-3.449-10.315-3.474 10.315h6.923zm2.19 6.538-1.671-4.924h-7.989l-1.64 4.924 2.215.247v1.204h-5.663v-1.204l1.177-.301c.326-.083.547-.192.656-.519l6.046-17.785h2.518l6.182 17.84c.11.327.302.381.63.464l1.259.3v1.205h-5.993v-1.204l2.273-.247zM1047.089 479.262c.384-.028.44-.138.44-.547V462.41h-4.791c-.3 0-.382.026-.436.301l-.438 2.38h-1.368v-4.215h15.924v4.214h-1.37l-.436-2.379c-.055-.275-.137-.3-.438-.3h-4.816v16.305c0 .383.027.493.438.519l3.01.22v1.23h-8.536v-1.23l2.817-.192zM1061.456 479.29c.384-.028.438-.138.438-.548v-15.924c0-.41-.054-.519-.438-.546l-1.998-.192v-1.204h6.814v1.204l-2.107.22c-.41.054-.438.109-.438.518v15.898c0 .436.027.491.438.546l2.107.219v1.204h-6.814v-1.204l1.998-.192zM1086.41 470.616c0-5.472-2.763-8.482-7.087-8.482-4.377 0-7.467 3.038-7.467 8.62 0 5.608 2.871 8.645 7.25 8.645 4.35 0 7.304-2.9 7.304-8.783m-16.471.138c0-5.91 3.283-10.234 9.439-10.234 6.102 0 8.92 4.323 8.92 9.823 0 6.457-3.146 10.67-9.302 10.67-6.239 0-9.057-4.323-9.057-10.26M1095.988 478.715c0 .438.028.493.438.548l1.832.217v1.204h-6.263v-1.204l1.722-.191c.383-.055.44-.136.44-.546v-15.925c0-.409-.057-.492-.44-.547l-1.722-.191v-1.23h4.813l10.18 17.29v-15.322c0-.409-.056-.492-.439-.547l-1.724-.191v-1.204h6.24v1.204l-1.835.22c-.41.055-.437.11-.437.518v17.866h-2.298l-10.507-17.455v15.486zM954.861 503.728c0-6.54-3.065-8.428-8.07-8.428h-3.75v16.608h3.583c5.391 0 8.237-2.983 8.237-8.18zm-14.091 8.399c.383-.055.44-.138.44-.547v-15.897c0-.41-.057-.493-.44-.548l-1.722-.191v-1.23h7.906c6.866 0 9.821 3.693 9.821 9.603 0 6.074-3.202 10.205-10.286 10.205h-7.441v-1.204l1.722-.191zM970.158 505.532l-3.45-10.313-3.474 10.313h6.924zm2.189 6.54-1.671-4.925h-7.989l-1.64 4.925 2.215.246v1.204h-5.663v-1.204l1.177-.3c.327-.084.547-.192.656-.52l6.046-17.784h2.518l6.183 17.838c.109.329.3.382.629.465l1.259.301v1.204h-5.993v-1.204l2.273-.246zM988.271 495.628c-.191-.246-1.313-.602-2.955-.602-3.146 0-4.65 1.342-4.65 3.503 0 5.527 10.205 2.325 10.205 9.74 0 4.132-3.257 5.58-7.06 5.58-2.518 0-4.787-.628-5.554-1.012v-4.13h1.341l.52 2.325c.082.355.11.466.465.601.438.166 1.668.576 3.474.576 3.039 0 4.87-1.15 4.87-3.804 0-5.854-10.204-2.488-10.204-9.685 0-3.802 3.01-5.362 6.702-5.362 2.273 0 4.05.602 4.871.903v4.377l-1.396-.137-.437-2.353c-.055-.246-.11-.41-.192-.52M1008.438 512.127c.385-.055.438-.138.438-.547v-7.524h-10.178v7.496c0 .437.028.491.438.546l1.832.22v1.204h-6.264v-1.204l1.723-.191c.385-.055.44-.138.44-.547v-15.925c0-.41-.055-.49-.44-.546l-1.723-.191v-1.204h6.264v1.204l-1.832.217c-.41.055-.438.11-.438.52v6.869h10.178v-6.869c0-.41-.053-.49-.438-.546l-1.722-.191v-1.204h6.263v1.204l-1.832.217c-.41.055-.438.11-.438.52v15.897c0 .437.028.491.438.546l1.832.22v1.204h-6.263v-1.204l1.722-.191zM1030.054 508.131c0-2.817-2.133-3.939-4.897-3.939h-4.214v7.715h3.612c3.091 0 5.499-.465 5.499-3.776zm-1.312-9.384c0-2.626-1.397-3.447-4.46-3.447h-3.339v7.305h2.928c2.244 0 4.871-.711 4.871-3.858zm-10.043 13.38c.385-.055.44-.137.44-.546v-15.899c0-.409-.055-.491-.44-.546l-1.722-.191v-1.232h7.742c4.678 0 5.937 2.135 5.937 4.844 0 2.598-1.668 4.048-3.337 4.595v.083c3.12.355 4.65 2.216 4.65 4.951 0 4.05-2.98 5.336-7.277 5.336h-7.715v-1.204l1.722-.192zM1051.644 503.453c0-5.472-2.763-8.48-7.087-8.48-4.377 0-7.467 3.036-7.467 8.617 0 5.608 2.871 8.646 7.25 8.646 4.35 0 7.304-2.9 7.304-8.783m-16.471.137c0-5.91 3.283-10.232 9.439-10.232 6.102 0 8.92 4.322 8.92 9.822 0 6.456-3.146 10.67-9.302 10.67-6.237 0-9.057-4.322-9.057-10.26M1067.6 505.532l-3.45-10.313-3.474 10.313h6.923zm2.188 6.54-1.67-4.925h-7.99l-1.64 4.925 2.215.246v1.204h-5.662v-1.204l1.176-.3c.327-.084.547-.192.657-.52l6.046-17.784h2.517l6.183 17.838c.11.329.301.382.63.465l1.258.301v1.204h-5.992v-1.204l2.272-.246zM1088.147 499.048c0-3.064-2.052-3.748-5.772-3.748h-2.435v8.017h3.01c2.873 0 5.197-.903 5.197-4.269zm-.191 13.024c-.683-1.588-1.777-4.294-2.516-6.02-.329-.766-.821-1.122-1.806-1.122h-3.694v6.622c0 .437.027.491.437.548l1.86.218v1.204h-6.264v-1.204l1.723-.191c.384-.055.44-.138.44-.547v-15.897c0-.41-.056-.493-.44-.548l-1.723-.191v-1.23h7.99c4.925 0 6.1 2.79 6.1 5.307 0 2.983-1.615 4.652-3.858 5.362.903.44 1.204 1.505 1.834 3.01l1.697 4.132c.108.246.3.438.657.492l1.832.301v1.204h-6.512v-1.232l2.243-.218zM1110.915 503.728c0-6.54-3.065-8.428-8.07-8.428h-3.75v16.608h3.583c5.391 0 8.237-2.983 8.237-8.18zm-14.091 8.399c.383-.055.44-.138.44-.547v-15.897c0-.41-.057-.493-.44-.548l-1.722-.191v-1.23h7.906c6.866 0 9.821 3.693 9.821 9.603 0 6.074-3.202 10.205-10.286 10.205h-7.441v-1.204l1.722-.191zM965.269 528.15c-.121-.156-.83-.381-1.867-.381-1.986 0-2.935.845-2.935 2.21 0 3.489 6.444 1.47 6.444 6.15 0 2.609-2.057 3.523-4.458 3.523-1.59 0-3.023-.396-3.507-.638v-2.61h.847l.328 1.47c.052.224.07.293.294.38.275.103 1.053.363 2.194.363 1.917 0 3.075-.726 3.075-2.401 0-3.697-6.444-1.571-6.444-6.115 0-2.401 1.901-3.386 4.233-3.386 1.433 0 2.555.381 3.075.57v2.764l-.883-.087-.275-1.484c-.035-.156-.07-.26-.121-.329M970.42 538.564c.242-.033.277-.086.277-.344v-10.037c0-.26-.035-.311-.277-.344l-1.087-.121v-.778h8.463v2.591l-.88-.053-.242-1.345c-.035-.173-.102-.225-.294-.225h-4.525v4.732h4.836v.968h-4.836v4.87h4.905c.19 0 .242-.016.277-.189l.276-1.504h.864v2.66h-8.844v-.76l1.087-.121zM985.662 539.653c-4.18 0-5.84-2.73-5.84-6.565 0-3.644 2.022-6.373 6.115-6.373 1.556 0 2.937.363 3.766.915v2.522l-.881-.05-.294-1.625c-.016-.137-.033-.242-.223-.312a7.324 7.324 0 0 0-2.453-.43c-2.92 0-4.82 1.917-4.82 5.372 0 3.609 1.796 5.527 4.7 5.527.88 0 1.968-.088 2.694-.414.12-.052.19-.121.223-.294l.278-1.538h.81v2.366c-.898.623-2.486.899-4.075.899M1000.558 527.82l-1.089-.12v-.76h3.956v.76l-1.158.139c-.257.033-.275.069-.275.327v7.221c0 2.866-1.572 4.266-4.492 4.266-3.108 0-4.3-1.521-4.3-4.285v-7.202c0-.258-.035-.311-.277-.346l-1.088-.12v-.76h3.956v.76l-1.157.139c-.259.033-.278.069-.278.327v7.133c0 2.47 1.193 3.336 3.248 3.336 2.107 0 3.23-.814 3.23-3.3v-7.17c0-.257-.034-.31-.276-.345M1013.486 530.308c0-1.935-1.295-2.367-3.645-2.367h-1.538v5.062h1.9c1.814 0 3.283-.569 3.283-2.695zm-.12 8.222c-.433-1-1.123-2.712-1.59-3.8-.207-.484-.518-.709-1.14-.709h-2.333v4.18c0 .278.018.312.278.347l1.173.136v.762h-3.954v-.762l1.087-.12c.242-.034.277-.085.277-.345v-10.037c0-.257-.035-.31-.277-.344l-1.087-.12v-.778h5.043c3.108 0 3.853 1.762 3.853 3.35 0 1.883-1.02 2.936-2.437 3.387.57.275.76.949 1.158 1.9l1.07 2.608c.07.155.19.276.415.31l1.158.19v.761h-4.11v-.777l1.415-.139zM1018.967 538.564c.242-.033.276-.086.276-.344v-10.037c0-.26-.034-.311-.276-.344l-1.087-.121v-.778h8.464v2.591l-.882-.053-.242-1.345c-.034-.173-.102-.225-.294-.225h-4.525v4.732h4.837v.968h-4.837v4.87h4.906c.19 0 .242-.016.276-.189l.277-1.504h.864v2.66h-8.844v-.76l1.087-.121zM1043.019 533.262c0-4.128-1.935-5.32-5.096-5.32h-2.366v10.484h2.264c3.402 0 5.198-1.884 5.198-5.164zm-8.897 5.302c.242-.034.278-.086.278-.345v-10.036c0-.259-.036-.31-.278-.345l-1.087-.121v-.778h4.992c4.336 0 6.201 2.332 6.201 6.063 0 3.834-2.02 6.444-6.495 6.444h-4.698v-.76l1.087-.122zM1052.682 534.402l-2.177-6.51-2.192 6.51h4.37zm1.382 4.128-1.053-3.11h-5.044l-1.037 3.11 1.4.155v.76h-3.576v-.76l.743-.19c.206-.051.346-.12.415-.328l3.816-11.228h1.59l3.903 11.263c.07.207.19.242.398.293l.795.19v.76h-3.783v-.76l1.433-.155zM1060.082 538.547c.24-.017.275-.086.275-.345v-10.295h-3.022c-.19 0-.242.017-.278.19l-.275 1.502h-.864v-2.66h10.053v2.66h-.864l-.276-1.502c-.036-.173-.087-.19-.277-.19h-3.04v10.295c0 .242.018.312.277.328l1.9.138v.778h-5.388v-.778l1.779-.12zM1073.387 534.402l-2.178-6.51-2.192 6.51h4.37zm1.38 4.128-1.052-3.11h-5.043l-1.037 3.11 1.4.155v.76h-3.577v-.76l.744-.19c.206-.051.345-.12.414-.328l3.817-11.228h1.59l3.903 11.263c.069.207.19.242.397.293l.795.19v.76h-3.783v-.76l1.433-.155zM1083.154 536.146c0 1.21.76 2.522 2.609 2.522 1.208 0 2.331-.605 3.11-1.813l-3.007-3.472c-1.59.242-2.712 1.054-2.712 2.763m2.504 3.507c-2.175 0-3.644-1.365-3.644-3.49 0-1.847 1.106-3.143 3.212-3.627-.535-.605-1.035-1.485-1.035-2.297 0-1.226.846-2.401 2.764-2.401 1.018 0 2.123.38 2.47.553v2.176l-.883-.052-.206-1.175c-.036-.189-.086-.275-.276-.344-.294-.104-.657-.156-1.105-.156-1.089 0-1.624.5-1.624 1.262 0 .88.345 1.397 1.624 2.885l2.486 2.917.104-.31c.31-.984.5-1.727.57-2.834h1.986v.76l-.795.156c-.206.035-.26.07-.292.294-.14.915-.432 1.969-.795 2.73l1.277 1.536c.156.19.242.225.503.278l.932.171v.76h-1.867l-1.485-1.796c-1.07 1.434-2.314 2.004-3.921 2.004M961.913 563.048c.242-.018.276-.087.276-.345v-9.276l-3.887 7.375h-1.07l-3.885-7.479v9.362c0 .276.015.33.275.345l1.503.138v.76h-4.3v-.76l1.087-.12c.242-.034.277-.087.277-.345v-10.036c0-.26-.035-.312-.277-.345l-1.087-.12v-.778h2.833l4.145 8.238 4.25-8.238h2.727v.759l-1.158.14c-.257.032-.275.068-.275.326v10.054c0 .224.05.294.275.327l1.158.138v.76h-4.3v-.76l1.433-.12zM977.485 557.572c0-3.453-1.744-5.355-4.473-5.355-2.762 0-4.715 1.917-4.715 5.443 0 3.54 1.813 5.458 4.577 5.458 2.746 0 4.611-1.832 4.611-5.546m-10.398.088c0-3.732 2.074-6.462 5.96-6.462 3.852 0 5.63 2.73 5.63 6.201 0 4.078-1.987 6.738-5.873 6.738-3.937 0-5.717-2.73-5.717-6.477M991 557.745c0-4.128-1.934-5.32-5.096-5.32h-2.366v10.485h2.264c3.402 0 5.198-1.884 5.198-5.165zm-8.896 5.303c.242-.035.278-.086.278-.346v-10.035c0-.26-.036-.311-.278-.346l-1.088-.12v-.778h4.992c4.336 0 6.201 2.331 6.201 6.063 0 3.834-2.02 6.443-6.495 6.443h-4.698v-.76l1.088-.121zM995.635 563.048c.242-.034.277-.087.277-.345v-10.036c0-.26-.035-.312-.277-.345l-1.087-.12v-.778h8.463v2.59l-.88-.053-.242-1.345c-.035-.173-.103-.225-.294-.225h-4.525v4.733h4.836v.968h-4.836v4.87h4.905c.19 0 .242-.017.277-.19l.276-1.503h.864v2.66h-8.844v-.76l1.087-.121zM1006.817 563.048c.242-.034.276-.087.276-.345v-10.036c0-.26-.034-.312-.276-.345l-1.088-.12v-.778h4.233v.777l-1.436.137c-.258.017-.275.087-.275.329v10.294h4.905c.19 0 .242-.016.277-.189l.276-1.503h.865v2.66h-8.845v-.76l1.088-.121zM1026.69 552.633c-.121-.156-.83-.38-1.867-.38-1.986 0-2.935.845-2.935 2.21 0 3.488 6.444 1.47 6.444 6.15 0 2.608-2.057 3.523-4.458 3.523-1.59 0-3.023-.396-3.507-.638v-2.61h.847l.328 1.469c.052.225.07.294.294.38.275.104 1.053.363 2.192.363 1.919 0 3.076-.726 3.076-2.4 0-3.698-6.443-1.572-6.443-6.116 0-2.4 1.901-3.386 4.233-3.386 1.433 0 2.555.382 3.075.57v2.764l-.883-.086-.275-1.485c-.035-.155-.07-.26-.121-.328M1033.984 563.03c.242-.017.276-.086.276-.345V552.39h-3.021c-.19 0-.242.018-.278.19l-.275 1.503h-.865v-2.66h10.053v2.66h-.864l-.275-1.502c-.036-.173-.088-.19-.278-.19h-3.039v10.294c0 .242.017.313.275.328l1.901.139v.777h-5.388v-.777l1.778-.121zM1051.608 557.572c0-3.453-1.744-5.355-4.473-5.355-2.763 0-4.716 1.917-4.716 5.443 0 3.54 1.814 5.458 4.577 5.458 2.747 0 4.612-1.832 4.612-5.546m-10.398.088c0-3.732 2.073-6.462 5.96-6.462 3.852 0 5.63 2.73 5.63 6.201 0 4.078-1.987 6.738-5.873 6.738-3.937 0-5.717-2.73-5.717-6.477M1062.826 554.792c0-1.936-1.295-2.368-3.644-2.368h-1.54v5.062h1.901c1.814 0 3.283-.569 3.283-2.694zm-.121 8.222c-.432-1.001-1.122-2.712-1.589-3.8-.207-.485-.518-.71-1.14-.71h-2.334v4.18c0 .278.019.313.278.347l1.174.137v.762h-3.955v-.762l1.088-.121c.242-.033.276-.085.276-.344v-10.037c0-.258-.034-.31-.276-.344l-1.088-.121v-.778h5.044c3.108 0 3.852 1.763 3.852 3.351 0 1.883-1.02 2.936-2.436 3.386.57.275.76.95 1.157 1.9l1.07 2.608c.07.156.19.277.415.311l1.158.189v.762h-4.11v-.778l1.416-.138zM1074.111 558.886l-2.178-6.511-2.192 6.51h4.37zm1.381 4.127-1.053-3.109h-5.043l-1.037 3.11 1.4.155v.76h-3.576v-.76l.743-.19c.206-.052.345-.121.415-.329l3.816-11.227h1.59l3.903 11.262c.07.207.19.242.398.294l.795.19v.76h-3.784v-.76l1.433-.156zM1089.145 559.282v4.197c-.986.467-2.624.657-4.007.657-4.648 0-6.426-2.781-6.426-6.563 0-3.645 2.02-6.374 6.115-6.374 1.554 0 2.988.362 3.816.914v2.522l-.88-.05-.293-1.625c-.018-.137-.035-.242-.225-.31a7.637 7.637 0 0 0-2.505-.432c-2.919 0-4.818 1.917-4.818 5.372 0 3.61 1.968 5.528 5.285 5.528.847 0 1.952-.14 2.574-.313.12-.033.224-.085.224-.292v-3.369h-2.521l.172-.95h4.491v.777l-.726.07c-.207.017-.276.069-.276.241M1093.142 563.048c.242-.034.276-.087.276-.345v-10.036c0-.26-.034-.312-.276-.345l-1.088-.12v-.778h8.463v2.59l-.88-.053-.242-1.345c-.034-.173-.102-.225-.294-.225h-4.525v4.733h4.836v.968h-4.836v4.87h4.906c.19 0 .241-.017.276-.19l.277-1.503h.864v2.66h-8.845v-.76l1.088-.121z" fill="#FFF" mask="url(#wyohtlwhjb)"></path><path d="M776.378 404.677c0-2.258-1.513-2.764-4.255-2.764h-1.796v5.912h2.219c2.118 0 3.832-.666 3.832-3.148zm-.14 9.603c-.505-1.17-1.313-3.167-1.857-4.438-.242-.566-.605-.827-1.332-.827h-2.722v4.88c0 .325.02.365.32.405l1.375.162v.887h-4.62v-.887l1.27-.143c.284-.039.322-.1.322-.402v-11.721c0-.304-.038-.363-.322-.404l-1.27-.142v-.906h5.889c3.632 0 4.499 2.056 4.499 3.913 0 2.2-1.19 3.429-2.843 3.953.665.323.887 1.11 1.35 2.22l1.25 3.047c.081.182.224.321.485.363l1.352.222v.887h-4.802v-.909l1.655-.16zM782.766 414.32c.283-.04.323-.1.323-.402v-11.722c0-.304-.04-.363-.323-.403l-1.271-.143v-.907h9.884v3.026l-1.027-.06-.284-1.573c-.04-.202-.12-.264-.343-.264h-5.285v5.527h5.648v1.131h-5.648v5.69h5.73c.222 0 .283-.021.322-.223l.324-1.754h1.008v3.106h-10.33v-.887l1.272-.142zM801.721 402.155c-.141-.181-.968-.443-2.179-.443-2.319 0-3.429.988-3.429 2.582 0 4.074 7.525 1.715 7.525 7.182 0 3.046-2.4 4.115-5.205 4.115-1.855 0-3.53-.464-4.094-.745V411.8h.988l.383 1.714c.06.262.08.342.343.443.322.121 1.23.425 2.562.425 2.24 0 3.592-.848 3.592-2.804 0-4.318-7.527-1.836-7.527-7.142 0-2.804 2.22-3.955 4.944-3.955 1.674 0 2.986.445 3.59.667v3.228l-1.03-.1-.32-1.735c-.042-.183-.082-.304-.143-.385M810.229 414.3c.282-.02.324-.1.324-.403v-12.024h-3.532c-.221 0-.282.02-.322.221l-.323 1.756h-1.008v-3.107h11.74v3.107H816.1l-.322-1.756c-.042-.201-.102-.221-.323-.221h-3.551v12.024c0 .282.02.364.324.383l2.218.161v.909h-6.294v-.909l2.077-.14zM828.297 404.677c0-2.258-1.513-2.764-4.257-2.764h-1.794v5.912h2.219c2.119 0 3.832-.666 3.832-3.148zm-.14 9.603c-.505-1.17-1.313-3.167-1.857-4.438-.242-.566-.605-.827-1.332-.827h-2.722v4.88c0 .325.02.365.32.405l1.375.162v.887h-4.62v-.887l1.27-.143c.284-.039.322-.1.322-.402v-11.721c0-.304-.038-.363-.322-.404l-1.27-.142v-.906h5.889c3.632 0 4.499 2.056 4.499 3.913 0 2.2-1.19 3.429-2.843 3.953.665.323.887 1.11 1.35 2.22l1.25 3.047c.082.182.224.321.485.363l1.352.222v.887h-4.802v-.909l1.655-.16zM834.906 414.32c.281-.02.323-.1.323-.402v-11.742c0-.304-.042-.383-.323-.405l-1.473-.141v-.887h5.023v.887l-1.552.163c-.304.04-.324.079-.324.383v11.72c0 .324.02.365.324.403l1.552.163v.887h-5.023v-.887l1.473-.142zM847.934 415.591c-4.882 0-6.818-3.187-6.818-7.665 0-4.257 2.36-7.446 7.142-7.446 1.815 0 3.428.425 4.397 1.07v2.946l-1.03-.06-.342-1.898c-.019-.16-.04-.282-.26-.361a8.504 8.504 0 0 0-2.867-.506c-3.409 0-5.628 2.24-5.628 6.274 0 4.217 2.098 6.456 5.487 6.456 1.03 0 2.3-.1 3.147-.483.14-.062.223-.143.263-.343l.322-1.796h.949v2.762c-1.05.726-2.905 1.05-4.762 1.05M859.485 414.3c.283-.02.325-.1.325-.403v-12.024h-3.532c-.222 0-.282.02-.322.221l-.323 1.756h-1.008v-3.107h11.74v3.107h-1.008l-.322-1.756c-.042-.201-.103-.221-.323-.221h-3.552v12.024c0 .282.02.364.324.383l2.218.161v.909h-6.293v-.909l2.076-.14zM869.848 414.32c.282-.04.323-.1.323-.402v-11.722c0-.304-.04-.363-.323-.403l-1.272-.143v-.907h9.885v3.026l-1.027-.06-.284-1.573c-.04-.202-.121-.264-.343-.264h-5.285v5.527h5.648v1.131h-5.648v5.69h5.73c.222 0 .283-.021.321-.223l.324-1.754h1.009v3.106h-10.33v-.887l1.272-.142zM893.282 408.127c0-4.822-2.26-6.213-5.952-6.213h-2.764v12.245h2.643c3.975 0 6.073-2.2 6.073-6.032zm-10.39 6.193c.283-.04.323-.1.323-.402v-11.722c0-.304-.04-.363-.322-.403l-1.272-.143v-.907h5.83c5.065 0 7.243 2.725 7.243 7.082 0 4.477-2.36 7.525-7.584 7.525h-5.489v-.889l1.272-.141zM801.267 433.653l-2.542-7.604-2.562 7.604h5.104zm1.614 4.823-1.23-3.632h-5.892l-1.21 3.632 1.635.182v.887h-4.178v-.887l.869-.224c.242-.06.403-.14.484-.381l4.457-13.115h1.858l4.56 13.154c.079.241.221.282.463.342l.926.224v.887h-4.417v-.887l1.675-.182zM813.445 439.786c-4.882 0-6.818-3.187-6.818-7.666 0-4.256 2.36-7.443 7.142-7.443 1.815 0 3.428.424 4.397 1.069v2.945l-1.03-.06-.342-1.897c-.019-.162-.04-.282-.26-.363a8.577 8.577 0 0 0-2.867-.504c-3.409 0-5.628 2.24-5.628 6.273 0 4.216 2.098 6.457 5.487 6.457 1.03 0 2.3-.101 3.147-.486.14-.059.223-.14.263-.34l.322-1.797h.949v2.762c-1.05.728-2.905 1.05-4.762 1.05M827.236 439.786c-4.883 0-6.818-3.187-6.818-7.666 0-4.256 2.359-7.443 7.142-7.443 1.814 0 3.427.424 4.397 1.069v2.945l-1.03-.06-.343-1.897c-.019-.162-.04-.282-.26-.363a8.577 8.577 0 0 0-2.867-.504c-3.409 0-5.628 2.24-5.628 6.273 0 4.216 2.098 6.457 5.487 6.457 1.03 0 2.3-.101 3.147-.486.143-.059.223-.14.264-.34l.32-1.797h.95v2.762c-1.05.728-2.905 1.05-4.761 1.05M835.984 438.516c.282-.04.322-.1.322-.404v-11.72c0-.303-.04-.365-.322-.404l-1.272-.141v-.909h9.884v3.027l-1.027-.062-.284-1.572c-.04-.203-.12-.262-.342-.262h-5.286v5.527h5.649v1.13h-5.649v5.69h5.73c.223 0 .283-.02.322-.224l.324-1.754h1.008v3.107h-10.33v-.888l1.273-.14zM854.938 426.35c-.14-.18-.968-.444-2.179-.444-2.318 0-3.429.99-3.429 2.582 0 4.076 7.525 1.717 7.525 7.184 0 3.046-2.4 4.114-5.205 4.114-1.855 0-3.53-.464-4.094-.746v-3.047h.988l.383 1.716c.06.261.08.343.343.444.322.121 1.231.422 2.562.422 2.24 0 3.592-.847 3.592-2.804 0-4.316-7.527-1.833-7.527-7.14 0-2.805 2.22-3.954 4.944-3.954 1.674 0 2.986.444 3.59.665v3.228l-1.029-.1-.321-1.736c-.042-.18-.082-.301-.143-.383M866.855 426.35c-.14-.18-.968-.444-2.179-.444-2.318 0-3.429.99-3.429 2.582 0 4.076 7.525 1.717 7.525 7.184 0 3.046-2.4 4.114-5.205 4.114-1.855 0-3.53-.464-4.094-.746v-3.047h.988l.383 1.716c.06.261.08.343.343.444.322.121 1.231.422 2.563.422 2.238 0 3.59-.847 3.59-2.804 0-4.316-7.526-1.833-7.526-7.14 0-2.805 2.22-3.954 4.944-3.954 1.674 0 2.986.444 3.59.665v3.228l-1.029-.1-.321-1.736c-.042-.18-.082-.301-.143-.383" fill="#000" mask="url(#wyohtlwhjb)"></path><path d="M771.544 495.68c0-3.1-1.453-3.994-3.825-3.994h-1.777v7.87h1.7c2.553 0 3.902-1.413 3.902-3.876zm-6.678 3.98c.182-.025.209-.064.209-.259v-7.532c0-.196-.027-.235-.209-.26l-.817-.093v-.582h3.748c3.253 0 4.655 1.75 4.655 4.552 0 2.877-1.518 4.836-4.875 4.836h-3.528v-.572l.817-.09zM775.015 499.66c.182-.026.21-.065.21-.259v-7.532c0-.196-.028-.234-.21-.26l-.816-.092v-.583h6.353v1.944l-.661-.037-.182-1.011c-.026-.13-.078-.17-.22-.17h-3.398v3.553h3.631v.726h-3.63v3.656h3.682c.142 0 .181-.014.207-.144l.208-1.127h.648v1.997h-6.638v-.571l.816-.09zM781.806 496.237h3.514v-.96h-3.514zM787.575 499.66c.182-.014.207-.065.207-.259v-7.547c0-.194-.025-.246-.207-.259l-.946-.09v-.571h3.227v.57l-.998.104c-.194.027-.207.052-.207.246v7.534c0 .207.013.233.207.258l.998.104v.571h-3.227v-.571l.946-.09zM799.256 495.68c0-3.1-1.453-3.994-3.825-3.994h-1.778v7.87h1.7c2.553 0 3.903-1.413 3.903-3.876zm-6.679 3.98c.182-.025.21-.064.21-.259v-7.532c0-.196-.028-.235-.21-.26l-.816-.093v-.582h3.747c3.254 0 4.655 1.75 4.655 4.552 0 2.877-1.518 4.836-4.875 4.836h-3.527v-.572l.816-.09zM802.727 499.66c.181-.026.209-.065.209-.259v-7.532c0-.196-.028-.234-.21-.26l-.816-.092v-.583h6.354v1.944l-.662-.037-.182-1.011c-.026-.13-.077-.17-.22-.17h-3.397v3.553h3.632v.726h-3.632v3.656h3.682c.143 0 .182-.014.208-.144l.207-1.127h.648v1.997h-6.638v-.571l.817-.09zM812.19 499.387c0 .21.012.234.208.26l.867.103v.57h-2.968v-.57l.816-.09c.182-.025.208-.064.208-.258v-7.547c0-.194-.026-.235-.208-.26l-.816-.091v-.584h2.283l4.821 8.195v-7.26c0-.194-.024-.235-.206-.26l-.818-.091v-.57h2.957v.57l-.87.105c-.193.026-.206.052-.206.246v8.466h-1.09l-4.979-8.273v7.34zM823.777 499.646c.183-.011.209-.065.209-.26v-7.726h-2.27c-.142 0-.181.013-.207.144l-.208 1.128h-.648v-1.998h7.545v1.998h-.648l-.206-1.128c-.027-.13-.064-.144-.208-.144h-2.282v7.727c0 .183.013.233.208.248l1.425.102v.585h-4.045v-.585l1.335-.09zM830.581 499.66c.182-.014.208-.065.208-.259v-7.547c0-.194-.026-.246-.208-.259l-.946-.09v-.571h3.228v.57l-.998.104c-.195.027-.208.052-.208.246v7.534c0 .207.013.233.208.258l.998.104v.571h-3.228v-.571l.946-.09zM835.584 499.66c.182-.026.21-.065.21-.259v-7.532c0-.196-.028-.234-.21-.26l-.816-.092v-.583h6.302v1.944l-.662-.037-.182-1.011c-.026-.13-.078-.17-.22-.17h-3.346v3.514h3.579v.726h-3.579v3.488c0 .207.013.246.209.258l1.905.104v.571h-4.006v-.571l.816-.09zM843.647 499.66c.182-.014.208-.065.208-.259v-7.547c0-.194-.026-.246-.208-.259l-.946-.09v-.571h3.228v.57l-.998.104c-.195.027-.208.052-.208.246v7.534c0 .207.013.233.208.258l.998.104v.571H842.7v-.571l.946-.09zM852.021 500.476c-3.138 0-4.382-2.048-4.382-4.926 0-2.736 1.518-4.784 4.59-4.784 1.166 0 2.205.272 2.826.686v1.894l-.662-.04-.22-1.218c-.013-.103-.024-.181-.168-.233a5.498 5.498 0 0 0-1.841-.324c-2.192 0-3.618 1.439-3.618 4.031 0 2.712 1.348 4.15 3.527 4.15.661 0 1.478-.066 2.022-.31.093-.04.143-.093.17-.22l.206-1.156h.61v1.776c-.675.467-1.867.674-3.06.674M862.001 496.535l-1.634-4.89-1.646 4.89H862zm1.037 3.1-.79-2.335h-3.787l-.777 2.334 1.048.116v.571h-2.683v-.571l.559-.141c.154-.04.26-.093.311-.247l2.865-8.428h1.192l2.93 8.453c.053.157.143.183.299.222l.596.14v.572h-2.838v-.571l1.075-.116zM867.549 499.646c.181-.011.207-.065.207-.26v-7.726h-2.27c-.142 0-.181.013-.207.144l-.208 1.128h-.648v-1.998h7.546v1.998h-.649l-.205-1.128c-.028-.13-.065-.144-.21-.144h-2.28v7.727c0 .183.012.233.207.248l1.426.102v.585h-4.046v-.585l1.337-.09zM874.353 499.66c.181-.014.207-.065.207-.259v-7.547c0-.194-.026-.246-.207-.259l-.946-.09v-.571h3.227v.57l-.998.104c-.194.027-.207.052-.207.246v7.534c0 .207.013.233.207.258l.998.104v.571h-3.227v-.571l.946-.09zM886.176 495.55c0-2.593-1.31-4.019-3.359-4.019-2.072 0-3.539 1.439-3.539 4.084 0 2.659 1.361 4.096 3.437 4.096 2.06 0 3.46-1.372 3.46-4.16m-7.805.064c0-2.8 1.557-4.849 4.474-4.849 2.89 0 4.226 2.048 4.226 4.655 0 3.059-1.49 5.055-4.407 5.055-2.957 0-4.293-2.048-4.293-4.86M890.71 499.387c0 .21.013.234.209.26l.867.103v.57h-2.968v-.57l.816-.09c.182-.025.208-.064.208-.258v-7.547c0-.194-.026-.235-.208-.26l-.816-.091v-.584h2.282l4.822 8.195v-7.26c0-.194-.024-.235-.206-.26l-.818-.091v-.57h2.957v.57l-.87.105c-.193.026-.206.052-.206.246v8.466h-1.09l-4.98-8.273v7.34z" fill="#FFF" mask="url(#wyohtlwhjb)"></path><path d="M765.539 517.016c.16-.023.183-.056.183-.23v-3.166h-4.285v3.154c0 .186.014.209.186.23l.77.094v.505h-2.635v-.505l.726-.082c.161-.023.183-.056.183-.23v-6.7c0-.175-.022-.21-.183-.232l-.726-.08v-.508h2.635v.507l-.77.092c-.172.023-.186.046-.186.22v2.888h4.285v-2.887c0-.175-.023-.21-.183-.232l-.726-.08v-.508h2.635v.507l-.77.092c-.171.023-.183.046-.183.22v6.689c0 .186.012.209.183.23l.77.094v.505h-2.635v-.505l.726-.082zM769.874 517.016c.16-.012.182-.056.182-.23v-6.7c0-.175-.023-.22-.182-.232l-.842-.08v-.508h2.866v.507l-.885.092c-.172.023-.183.046-.183.22v6.689c0 .186.011.209.183.23l.885.094v.505h-2.866v-.505l.842-.082zM778.87 511.742c0-1.255-.668-1.808-2.2-1.808h-1.52v3.812h1.349c1.323 0 2.37-.289 2.37-2.004zm-4.664 5.274c.163-.023.186-.056.186-.23v-6.69c0-.173-.023-.208-.186-.23l-.726-.082v-.518h3.42c2.129 0 2.777 1.128 2.777 2.453 0 1.97-1.21 2.706-3.157 2.706h-1.37v2.349c0 .186.012.219.183.23l1.648.094v.505h-3.501v-.505l.726-.082zM784.562 514.24l-1.451-4.341-1.462 4.342h2.913zm.92 2.753-.704-2.072h-3.361l-.691 2.072.933.104v.507h-2.382v-.507l.495-.125c.139-.037.23-.083.275-.22l2.547-7.486h1.057l2.602 7.508c.048.138.13.161.267.197l.53.126v.507h-2.524v-.507l.957-.104zM792.568 514.24l-1.452-4.341-1.462 4.342h2.914zm.923 2.753-.704-2.072h-3.362l-.69 2.072.932.104v.507h-2.385v-.507l.496-.125c.138-.037.23-.083.275-.22l2.546-7.486h1.06l2.603 7.508c.044.138.126.161.263.197l.53.126v.507h-2.52v-.507l.956-.104zM795.176 514.667h3.122v-.853h-3.122zM802.433 515.404c0 .808.51 1.682 1.741 1.682.805 0 1.553-.403 2.07-1.21l-2.002-2.314c-1.059.161-1.81.703-1.81 1.842m1.671 2.337c-1.451 0-2.43-.908-2.43-2.325 0-1.233.737-2.096 2.144-2.419-.357-.403-.693-.989-.693-1.53 0-.819.566-1.602 1.844-1.602.68 0 1.417.253 1.644.369v1.451l-.584-.034-.139-.784c-.024-.126-.059-.183-.186-.232a2.292 2.292 0 0 0-.735-.102c-.726 0-1.083.334-1.083.84 0 .587.23.935 1.083 1.924l1.659 1.947.067-.209c.21-.655.334-1.15.38-1.886h1.326v.505l-.53.104c-.137.023-.175.046-.196.194-.094.61-.288 1.314-.53 1.82l.852 1.026c.105.127.162.15.333.184l.624.116v.505h-1.246l-.99-1.198c-.713.956-1.542 1.336-2.614 1.336M819.608 514.507v2.797c-.655.31-1.75.437-2.671.437-3.098 0-4.285-1.853-4.285-4.375 0-2.43 1.347-4.249 4.079-4.249 1.035 0 1.992.242 2.543.611v1.68l-.586-.035-.196-1.082c-.011-.09-.023-.161-.15-.206a5.07 5.07 0 0 0-1.67-.29c-1.947 0-3.213 1.28-3.213 3.583 0 2.406 1.315 3.684 3.525 3.684.562 0 1.3-.091 1.716-.206.079-.023.15-.058.15-.198v-2.243h-1.683l.115-.634h2.993v.517l-.48.047c-.142.012-.187.047-.187.162M828.09 513.481c0-2.752-1.291-3.547-3.398-3.547h-1.579v6.991h1.511c2.267 0 3.465-1.256 3.465-3.444zm-5.93 3.535c.16-.023.183-.056.183-.23v-6.69c0-.173-.023-.208-.183-.23l-.726-.082v-.518h3.327c2.889 0 4.136 1.555 4.136 4.043 0 2.556-1.348 4.294-4.332 4.294h-3.13v-.505l.725-.082zM835.73 511.742c0-1.255-.67-1.808-2.2-1.808h-1.522v3.812h1.348c1.323 0 2.373-.289 2.373-2.004zm-4.664 5.274c.16-.023.183-.056.183-.23v-6.69c0-.173-.023-.208-.183-.23l-.726-.082v-.518h3.42c2.129 0 2.774 1.128 2.774 2.453 0 1.97-1.21 2.706-3.154 2.706h-1.372v2.349c0 .186.011.219.185.23l1.647.094v.505h-3.5v-.505l.726-.082zM843.045 511.512c0-1.29-.867-1.578-2.43-1.578h-1.026v3.374h1.267c1.21 0 2.19-.38 2.19-1.796zm-.082 5.482c-.286-.668-.747-1.81-1.06-2.533-.138-.323-.345-.473-.759-.473h-1.555v2.785c0 .186.01.21.186.23l.78.095v.505h-2.635v-.505l.726-.083c.16-.021.182-.056.182-.23v-6.688c0-.175-.021-.21-.182-.232l-.726-.08v-.52h3.361c2.074 0 2.57 1.177 2.57 2.234 0 1.256-.679 1.96-1.624 2.26.38.183.506.632.77 1.265l.715 1.74a.334.334 0 0 0 .275.207l.77.127v.505h-2.738v-.517l.944-.092zM845.11 514.667h3.123v-.853h-3.123zM851.999 517.742c-1.924 0-2.73-1.243-2.73-3.018 0-2.197 1.245-3.12 2.96-3.12.827 0 1.416.22 1.635.312v1.414l-.588-.033-.138-.759c-.011-.07-.023-.115-.127-.151-.16-.058-.517-.115-.874-.115-1.154 0-2.062.656-2.062 2.418 0 1.659.793 2.362 2.028 2.362.574 0 1.106-.163 1.486-.405l.298.645c-.403.265-1.162.45-1.888.45M859.29 514.645c0-1.579-.6-2.36-1.865-2.36-1.28 0-1.995.793-1.995 2.371 0 1.579.658 2.453 1.936 2.453 1.266 0 1.924-.841 1.924-2.464m-4.652 0c0-1.798.897-3.04 2.81-3.04 1.898 0 2.635 1.242 2.635 2.957 0 1.925-.852 3.179-2.75 3.179-1.914 0-2.695-1.289-2.695-3.096M869.034 517.016c.163-.023.186-.045.186-.218v-2.763c0-1.14-.21-1.729-1.106-1.729-.692 0-1.335.37-1.76.68.033.22.044.471.044.75v3.05c0 .185.012.207.183.23l.6.082v.505h-2.302v-.517l.563-.07c.16-.023.186-.045.186-.218v-2.821c0-1.14-.141-1.67-.991-1.67-.863 0-1.589.552-1.924.864v3.614c0 .186.011.208.183.23l.692.083v.505h-2.43v-.517l.599-.07c.16-.023.185-.056.185-.23v-4.121c0-.127-.036-.209-.15-.242l-.668-.22.092-.484h1.3l.093.714.035.012c.472-.369 1.198-.841 2.164-.841.75 0 1.151.265 1.371.748.553-.391 1.243-.748 2.106-.748 1.348 0 1.705.852 1.705 2.189v2.992c0 .186.012.208.186.23l.688.083v.505h-2.43v-.517l.6-.07zM875.04 517.075c1.28 0 1.726-.98 1.726-2.556 0-1.729-.677-2.223-1.518-2.223-.772 0-1.567.529-1.924.828v3.098c.426.45 1.083.853 1.715.853zm-2.67 2.382c.16-.022.182-.058.182-.23v-6.563c0-.126-.033-.208-.148-.241l-.67-.22.094-.484h1.313l.092.693.023.011c.529-.405 1.288-.82 2.118-.82 1.303 0 2.155.842 2.155 2.822 0 2.107-.774 3.086-1.958 3.282a3.018 3.018 0 0 1-.461.035c-.681 0-1.292-.22-1.761-.68l-.025.013v2.152c0 .185.01.218.186.23l1.034.082v.507h-2.657v-.518l.482-.071zM879.281 517.016c.16-.012.186-.056.186-.23v-6.932c0-.127-.036-.208-.153-.242l-.7-.22.091-.483h1.533v7.876c0 .186.011.208.182.23l.75.083v.505h-2.66v-.517l.771-.07zM883.025 510.292c-.39 0-.622-.218-.622-.611 0-.392.232-.61.622-.61.393 0 .625.218.625.61 0 .393-.232.61-.625.61zm-.413 6.724c.16-.012.186-.056.186-.23v-4.122c0-.126-.038-.208-.153-.242l-.667-.22.094-.483h1.496v5.066c0 .186.012.208.183.23l.807.083v.505h-2.776v-.517l.83-.07zM886.184 516.118c0 .69.343.98.942.98.796 0 1.545-.519 1.969-1.083v-1.106l-1.507.138c-1.106.104-1.404.428-1.404 1.071zm2.922.702c-.61.564-1.254.922-2.128.922-1.44 0-1.602-.991-1.602-1.531 0-1.153.716-1.636 2.074-1.763l1.645-.15v-.644c0-.968-.193-1.394-1.31-1.394-.774 0-1.359 0-1.373.933l-.738-.093c0-1.358 1.27-1.497 2.122-1.497 1.578 0 2.074.463 2.074 2.028v3.154c0 .186.01.208.182.23l.6.083v.505h-1.405l-.103-.77-.038-.013zM896.043 517.016c.16-.023.183-.045.183-.218v-2.763c0-1.189-.321-1.729-1.172-1.729-.841 0-1.66.54-2.006.865v3.614c0 .186.011.208.185.23l.692.083v.505h-2.43v-.517l.6-.07c.16-.023.182-.056.182-.23v-4.121c0-.127-.034-.209-.15-.242l-.67-.22.094-.484h1.302l.094.714.033.012c.576-.427 1.313-.841 2.234-.841 1.346 0 1.786.852 1.786 2.189v2.992c0 .186.011.208.183.23l.69.083v.505h-2.429v-.517l.6-.07zM901 517.742c-1.001 0-1.485-.507-1.485-1.428v-3.835c0-.068 0-.115-.094-.115h-.851v-.519c.851-.115 1.048-.413 1.198-1.554h.517v1.312c0 .071 0 .116.092.116h1.717v.645h-1.809v3.662c0 .736.208 1.026.874 1.026.38 0 .771-.104 1.107-.232l.218.599c-.437.173-.933.323-1.484.323" fill="#B3B3B3" mask="url(#wyohtlwhjb)"></path><path stroke="#000" stroke-width="2.973" stroke-linecap="round" stroke-linejoin="round" stroke-dasharray="0,10" mask="url(#wyohtlwhjb)" d="M764.748 452.975h142.53"></path><path fill="#000" mask="url(#wyohtlwhjb)" d="m904.78 461.516 14.791-8.542-14.79-8.54z"></path></g></svg> 